<?xml version="1.0" encoding="UTF-8" standalone="no"?><svg xmlns="http://www.w3.org/2000/svg" xmlns:xlink="http://www.w3.org/1999/xlink" contentStyleType="text/css" height="1028px" preserveAspectRatio="none" style="width:2322px;height:1028px;background:#FFFFFF;" version="1.1" viewBox="0 0 2322 1028" width="2322px" zoomAndPan="magnify"><defs/><g><!--MD5=[3bdfe2016747654c8de9044f279815b2]
class DryRunnableStorage--><g id="elem_DryRunnableStorage"><rect codeLine="1" fill="#F1F1F1" height="250.7191" id="DryRunnableStorage" rx="2.5" ry="2.5" style="stroke:#181818;stroke-width:0.5;" width="727" x="7" y="771"/><ellipse cx="297.75" cy="787" fill="#7FFFD4" rx="11" ry="11" style="stroke:#181818;stroke-width:1.0;"/><path d="M297.9375,793.7031 C300.2344,793.7031 301.6875,792.0781 301.6875,790.0781 C301.6875,788.25 300.8594,787.4063 299.7188,786.6094 L298.7031,785.8906 C297.5781,785.0781 297.1563,784.7813 297.1563,783.9219 C297.1563,783.2344 297.6406,782.8281 298.2188,782.8281 C298.9531,782.8281 299.4375,783.2188 300.1406,783.8594 L301.4531,782.2813 C300.4844,781.2656 299.4688,780.6719 298.2031,780.6719 C296.0625,780.6719 294.6094,782.1875 294.6094,784.1094 C294.6094,785.9063 295.5313,786.8125 296.625,787.5625 L297.7188,788.3125 C298.6563,788.9219 299.1094,789.5 299.1094,790.4375 C299.1094,791.1094 298.6406,791.5313 297.9375,791.5313 C297.2344,791.5313 296.4844,791.0156 295.8281,790.1875 L294.2813,791.875 C295.3125,793.0625 296.6094,793.7031 297.9375,793.7031 Z " fill="#000000"/><text fill="#000000" font-family="sans-serif" font-size="14" lengthAdjust="spacing" textLength="137" x="318.25" y="793.104">DryRunnableStorage</text><line style="stroke:#181818;stroke-width:0.5;" x1="8" x2="733" y1="803" y2="803"/><ellipse cx="18" cy="818.636" fill="none" rx="3" ry="3" style="stroke:#038048;stroke-width:1.0;"/><text fill="#000000" font-family="sans-serif" font-size="14" lengthAdjust="spacing" textLength="165" x="27" y="823.2399">Storage storage.Interface</text><ellipse cx="18" cy="838.9079" fill="none" rx="3" ry="3" style="stroke:#038048;stroke-width:1.0;"/><text fill="#000000" font-family="sans-serif" font-size="14" lengthAdjust="spacing" textLength="142" x="27" y="843.5118">Codec runtime.Codec</text><line style="stroke:#181818;stroke-width:0.5;" x1="8" x2="733" y1="851.5438" y2="851.5438"/><rect fill="#F24D5C" height="6" style="stroke:#C82930;stroke-width:1.0;" width="6" x="15" y="864.1798"/><text fill="#000000" font-family="sans-serif" font-size="14" lengthAdjust="spacing" textLength="349" x="27" y="871.7838">copyInto(in runtime.Object, out runtime.Object) error</text><text fill="#000000" font-family="sans-serif" font-size="14" lengthAdjust="spacing" textLength="3" x="27" y="892.0557"> </text><ellipse cx="18" cy="907.7236" fill="#84BE84" rx="3" ry="3" style="stroke:#038048;stroke-width:1.0;"/><text fill="#000000" font-family="sans-serif" font-size="14" lengthAdjust="spacing" textLength="190" x="27" y="912.3276">Versioner() storage.Versioner</text><ellipse cx="18" cy="927.9955" fill="#84BE84" rx="3" ry="3" style="stroke:#038048;stroke-width:1.0;"/><text fill="#000000" font-family="sans-serif" font-size="14" lengthAdjust="spacing" textLength="701" x="27" y="932.5995">Create(ctx context.Context, key string, obj runtime.Object, out runtime.Object, ttl uint64, dryRun bool) error</text><ellipse cx="18" cy="948.2674" fill="#84BE84" rx="3" ry="3" style="stroke:#038048;stroke-width:1.0;"/><text fill="#000000" font-family="sans-serif" font-size="14" lengthAdjust="spacing" textLength="570" x="27" y="952.8714">Watch(ctx context.Context, key string, opts storage.ListOptions) (watch.Interface, error)</text><ellipse cx="18" cy="968.5393" fill="#84BE84" rx="3" ry="3" style="stroke:#038048;stroke-width:1.0;"/><text fill="#000000" font-family="sans-serif" font-size="14" lengthAdjust="spacing" textLength="581" x="27" y="973.1433">Get(ctx context.Context, key string, opts storage.GetOptions, objPtr runtime.Object) error</text><ellipse cx="18" cy="988.8112" fill="#84BE84" rx="3" ry="3" style="stroke:#038048;stroke-width:1.0;"/><text fill="#000000" font-family="sans-serif" font-size="14" lengthAdjust="spacing" textLength="609" x="27" y="993.4152">GetList(ctx context.Context, key string, opts storage.ListOptions, listObj runtime.Object) error</text><ellipse cx="18" cy="1009.0832" fill="#84BE84" rx="3" ry="3" style="stroke:#038048;stroke-width:1.0;"/><text fill="#000000" font-family="sans-serif" font-size="14" lengthAdjust="spacing" textLength="199" x="27" y="1013.6871">Count(key string) (int64, error)</text></g><!--MD5=[2df1ba2100f398d8388bd126514dc6fe]
class storage_etcd3_store--><g id="elem_storage_etcd3_store"><rect codeLine="16" fill="#F1F1F1" height="169.6315" id="storage_etcd3_store" rx="2.5" ry="2.5" style="stroke:#181818;stroke-width:0.5;" width="640" x="50.5" y="389"/><ellipse cx="298.75" cy="405" fill="#7FFFD4" rx="11" ry="11" style="stroke:#181818;stroke-width:1.0;"/><path d="M298.9375,411.7031 C301.2344,411.7031 302.6875,410.0781 302.6875,408.0781 C302.6875,406.25 301.8594,405.4063 300.7188,404.6094 L299.7031,403.8906 C298.5781,403.0781 298.1563,402.7813 298.1563,401.9219 C298.1563,401.2344 298.6406,400.8281 299.2188,400.8281 C299.9531,400.8281 300.4375,401.2188 301.1406,401.8594 L302.4531,400.2813 C301.4844,399.2656 300.4688,398.6719 299.2031,398.6719 C297.0625,398.6719 295.6094,400.1875 295.6094,402.1094 C295.6094,403.9063 296.5313,404.8125 297.625,405.5625 L298.7188,406.3125 C299.6563,406.9219 300.1094,407.5 300.1094,408.4375 C300.1094,409.1094 299.6406,409.5313 298.9375,409.5313 C298.2344,409.5313 297.4844,409.0156 296.8281,408.1875 L295.2813,409.875 C296.3125,411.0625 297.6094,411.7031 298.9375,411.7031 Z " fill="#000000"/><text fill="#000000" font-family="sans-serif" font-size="14" lengthAdjust="spacing" textLength="135" x="319.25" y="411.104">storage_etcd3_store</text><line style="stroke:#181818;stroke-width:0.5;" x1="51.5" x2="689.5" y1="421" y2="421"/><line style="stroke:#181818;stroke-width:0.5;" x1="51.5" x2="689.5" y1="429" y2="429"/><ellipse cx="61.5" cy="444.636" fill="#84BE84" rx="3" ry="3" style="stroke:#038048;stroke-width:1.0;"/><text fill="#000000" font-family="sans-serif" font-size="14" lengthAdjust="spacing" textLength="190" x="70.5" y="449.2399">Versioner() storage.Versioner</text><ellipse cx="61.5" cy="464.9079" fill="#84BE84" rx="3" ry="3" style="stroke:#038048;stroke-width:1.0;"/><text fill="#000000" font-family="sans-serif" font-size="14" lengthAdjust="spacing" textLength="563" x="70.5" y="469.5118">Get(ctx context.Context, key string, opts storage.GetOptions, out runtime.Object) error</text><ellipse cx="61.5" cy="485.1798" fill="#84BE84" rx="3" ry="3" style="stroke:#038048;stroke-width:1.0;"/><text fill="#000000" font-family="sans-serif" font-size="14" lengthAdjust="spacing" textLength="614" x="70.5" y="489.7838">Create(ctx context.Context, key string, obj runtime.Object, out runtime.Object, ttl uint64) error</text><ellipse cx="61.5" cy="505.4517" fill="#84BE84" rx="3" ry="3" style="stroke:#038048;stroke-width:1.0;"/><text fill="#000000" font-family="sans-serif" font-size="14" lengthAdjust="spacing" textLength="199" x="70.5" y="510.0557">Count(key string) (int64, error)</text><ellipse cx="61.5" cy="525.7236" fill="#84BE84" rx="3" ry="3" style="stroke:#038048;stroke-width:1.0;"/><text fill="#000000" font-family="sans-serif" font-size="14" lengthAdjust="spacing" textLength="609" x="70.5" y="530.3276">GetList(ctx context.Context, key string, opts storage.ListOptions, listObj runtime.Object) error</text><ellipse cx="61.5" cy="545.9955" fill="#84BE84" rx="3" ry="3" style="stroke:#038048;stroke-width:1.0;"/><text fill="#000000" font-family="sans-serif" font-size="14" lengthAdjust="spacing" textLength="570" x="70.5" y="550.5995">Watch(ctx context.Context, key string, opts storage.ListOptions) (watch.Interface, error)</text></g><!--MD5=[0d215eeb74c74be55c76f07269f45581]
class storage_Interface--><g id="elem_storage_Interface"><rect codeLine="27" fill="#F1F1F1" height="169.6315" id="storage_Interface" rx="2.5" ry="2.5" style="stroke:#181818;stroke-width:0.5;" width="640" x="50.5" y="7"/><ellipse cx="308.25" cy="23" fill="#B4A7E5" rx="11" ry="11" style="stroke:#181818;stroke-width:1.0;"/><path d="M304.6094,29.5 L311.3906,29.5 L311.3906,27.4219 L309.2344,27.4219 L309.2344,18.9844 L311.3906,18.9844 L311.3906,16.875 L304.6094,16.875 L304.6094,18.9844 L306.7031,18.9844 L306.7031,27.4219 L304.6094,27.4219 L304.6094,29.5 Z " fill="#000000"/><text fill="#000000" font-family="sans-serif" font-size="14" font-style="italic" lengthAdjust="spacing" textLength="116" x="328.75" y="29.104">storage_Interface</text><line style="stroke:#181818;stroke-width:0.5;" x1="51.5" x2="689.5" y1="39" y2="39"/><line style="stroke:#181818;stroke-width:0.5;" x1="51.5" x2="689.5" y1="47" y2="47"/><ellipse cx="61.5" cy="62.636" fill="#84BE84" rx="3" ry="3" style="stroke:#038048;stroke-width:1.0;"/><text fill="#000000" font-family="sans-serif" font-size="14" lengthAdjust="spacing" textLength="137" x="70.5" y="67.2399">Versioner() Versioner</text><ellipse cx="61.5" cy="82.9079" fill="#84BE84" rx="3" ry="3" style="stroke:#038048;stroke-width:1.0;"/><text fill="#000000" font-family="sans-serif" font-size="14" lengthAdjust="spacing" textLength="614" x="70.5" y="87.5118">Create(ctx context.Context, key string, obj runtime.Object, out runtime.Object, ttl uint64) error</text><ellipse cx="61.5" cy="103.1798" fill="#84BE84" rx="3" ry="3" style="stroke:#038048;stroke-width:1.0;"/><text fill="#000000" font-family="sans-serif" font-size="14" lengthAdjust="spacing" textLength="517" x="70.5" y="107.7838">Watch(ctx context.Context, key string, opts ListOptions) (watch.Interface, error)</text><ellipse cx="61.5" cy="123.4517" fill="#84BE84" rx="3" ry="3" style="stroke:#038048;stroke-width:1.0;"/><text fill="#000000" font-family="sans-serif" font-size="14" lengthAdjust="spacing" textLength="528" x="70.5" y="128.0557">Get(ctx context.Context, key string, opts GetOptions, objPtr runtime.Object) error</text><ellipse cx="61.5" cy="143.7236" fill="#84BE84" rx="3" ry="3" style="stroke:#038048;stroke-width:1.0;"/><text fill="#000000" font-family="sans-serif" font-size="14" lengthAdjust="spacing" textLength="556" x="70.5" y="148.3276">GetList(ctx context.Context, key string, opts ListOptions, listObj runtime.Object) error</text><ellipse cx="61.5" cy="163.9955" fill="#84BE84" rx="3" ry="3" style="stroke:#038048;stroke-width:1.0;"/><text fill="#000000" font-family="sans-serif" font-size="14" lengthAdjust="spacing" textLength="199" x="70.5" y="168.5995">Count(key string) (int64, error)</text></g><!--MD5=[5a1e4284dcd891c26b92791abd819d10]
class rest_RESTCreateStrategy--><g id="elem_rest_RESTCreateStrategy"><rect codeLine="39" fill="#F1F1F1" height="149.3596" id="rest_RESTCreateStrategy" rx="2.5" ry="2.5" style="stroke:#181818;stroke-width:0.5;" width="468" x="769.5" y="822"/><ellipse cx="917.75" cy="838" fill="#B4A7E5" rx="11" ry="11" style="stroke:#181818;stroke-width:1.0;"/><path d="M914.1094,844.5 L920.8906,844.5 L920.8906,842.4219 L918.7344,842.4219 L918.7344,833.9844 L920.8906,833.9844 L920.8906,831.875 L914.1094,831.875 L914.1094,833.9844 L916.2031,833.9844 L916.2031,842.4219 L914.1094,842.4219 L914.1094,844.5 Z " fill="#000000"/><text fill="#000000" font-family="sans-serif" font-size="14" font-style="italic" lengthAdjust="spacing" textLength="163" x="938.25" y="844.104">rest_RESTCreateStrategy</text><line style="stroke:#181818;stroke-width:0.5;" x1="770.5" x2="1236.5" y1="854" y2="854"/><line style="stroke:#181818;stroke-width:0.5;" x1="770.5" x2="1236.5" y1="862" y2="862"/><ellipse cx="780.5" cy="877.636" fill="#84BE84" rx="3" ry="3" style="stroke:#038048;stroke-width:1.0;"/><text fill="#000000" font-family="sans-serif" font-size="14" lengthAdjust="spacing" textLength="169" x="789.5" y="882.2399">NamespaceScoped() bool</text><ellipse cx="780.5" cy="897.9079" fill="#84BE84" rx="3" ry="3" style="stroke:#038048;stroke-width:1.0;"/><text fill="#000000" font-family="sans-serif" font-size="14" lengthAdjust="spacing" textLength="383" x="789.5" y="902.5118">PrepareForCreate(ctx context.Context, obj runtime.Object)</text><ellipse cx="780.5" cy="918.1798" fill="#84BE84" rx="3" ry="3" style="stroke:#038048;stroke-width:1.0;"/><text fill="#000000" font-family="sans-serif" font-size="14" lengthAdjust="spacing" textLength="413" x="789.5" y="922.7838">Validate(ctx context.Context, obj runtime.Object) field.ErrorList</text><ellipse cx="780.5" cy="938.4517" fill="#84BE84" rx="3" ry="3" style="stroke:#038048;stroke-width:1.0;"/><text fill="#000000" font-family="sans-serif" font-size="14" lengthAdjust="spacing" textLength="442" x="789.5" y="943.0557">WarningsOnCreate(ctx context.Context, obj runtime.Object) []string</text><ellipse cx="780.5" cy="958.7236" fill="#84BE84" rx="3" ry="3" style="stroke:#038048;stroke-width:1.0;"/><text fill="#000000" font-family="sans-serif" font-size="14" lengthAdjust="spacing" textLength="219" x="789.5" y="963.3276">Canonicalize(obj runtime.Object)</text></g><!--MD5=[4068b9f54a891d771aa05ae29b4c78ea]
class runtime_interface_ObjectTyper--><g id="elem_runtime_interface_ObjectTyper"><rect codeLine="48" fill="#F1F1F1" height="88.5438" id="runtime_interface_ObjectTyper" rx="2.5" ry="2.5" style="stroke:#181818;stroke-width:0.5;" width="437" x="1878" y="429.5"/><ellipse cx="1988.25" cy="445.5" fill="#B4A7E5" rx="11" ry="11" style="stroke:#181818;stroke-width:1.0;"/><path d="M1984.6094,452 L1991.3906,452 L1991.3906,449.9219 L1989.2344,449.9219 L1989.2344,441.4844 L1991.3906,441.4844 L1991.3906,439.375 L1984.6094,439.375 L1984.6094,441.4844 L1986.7031,441.4844 L1986.7031,449.9219 L1984.6094,449.9219 L1984.6094,452 Z " fill="#000000"/><text fill="#000000" font-family="sans-serif" font-size="14" font-style="italic" lengthAdjust="spacing" textLength="208" x="2008.75" y="451.604">runtime_interface_ObjectTyper</text><line style="stroke:#181818;stroke-width:0.5;" x1="1879" x2="2314" y1="461.5" y2="461.5"/><line style="stroke:#181818;stroke-width:0.5;" x1="1879" x2="2314" y1="469.5" y2="469.5"/><ellipse cx="1889" cy="485.136" fill="#84BE84" rx="3" ry="3" style="stroke:#038048;stroke-width:1.0;"/><text fill="#000000" font-family="sans-serif" font-size="14" lengthAdjust="spacing" textLength="411" x="1898" y="489.7399">ObjectKinds( Object) ([]schema.GroupVersionKind, bool, error)</text><ellipse cx="1889" cy="505.4079" fill="#84BE84" rx="3" ry="3" style="stroke:#038048;stroke-width:1.0;"/><text fill="#000000" font-family="sans-serif" font-size="14" lengthAdjust="spacing" textLength="320" x="1898" y="510.0118">Recognizes(gvk schema.GroupVersionKind) bool</text></g><!--MD5=[e6e318bcd8fe4e53a4f09ed656b00812]
class rest_RESTDeleteStrategy--><g id="elem_rest_RESTDeleteStrategy"><rect codeLine="54" fill="#F1F1F1" height="48" id="rest_RESTDeleteStrategy" rx="2.5" ry="2.5" style="stroke:#181818;stroke-width:0.5;" width="195" x="1999" y="872.5"/><ellipse cx="2014" cy="888.5" fill="#B4A7E5" rx="11" ry="11" style="stroke:#181818;stroke-width:1.0;"/><path d="M2010.3594,895 L2017.1406,895 L2017.1406,892.9219 L2014.9844,892.9219 L2014.9844,884.4844 L2017.1406,884.4844 L2017.1406,882.375 L2010.3594,882.375 L2010.3594,884.4844 L2012.4531,884.4844 L2012.4531,892.9219 L2010.3594,892.9219 L2010.3594,895 Z " fill="#000000"/><text fill="#000000" font-family="sans-serif" font-size="14" font-style="italic" lengthAdjust="spacing" textLength="163" x="2028" y="894.604">rest_RESTDeleteStrategy</text><line style="stroke:#181818;stroke-width:0.5;" x1="2000" x2="2193" y1="904.5" y2="904.5"/><line style="stroke:#181818;stroke-width:0.5;" x1="2000" x2="2193" y1="912.5" y2="912.5"/></g><!--MD5=[7a3e021ba9317f18debeb95487b3817b]
class rest_RESTUpdateStrategy--><g id="elem_rest_RESTUpdateStrategy"><rect codeLine="57" fill="#F1F1F1" height="129.0876" id="rest_RESTUpdateStrategy" rx="2.5" ry="2.5" style="stroke:#181818;stroke-width:0.5;" width="247" x="1273" y="832"/><ellipse cx="1308.7" cy="848" fill="#B4A7E5" rx="11" ry="11" style="stroke:#181818;stroke-width:1.0;"/><path d="M1305.0594,854.5 L1311.8406,854.5 L1311.8406,852.4219 L1309.6844,852.4219 L1309.6844,843.9844 L1311.8406,843.9844 L1311.8406,841.875 L1305.0594,841.875 L1305.0594,843.9844 L1307.1531,843.9844 L1307.1531,852.4219 L1305.0594,852.4219 L1305.0594,854.5 Z " fill="#000000"/><text fill="#000000" font-family="sans-serif" font-size="14" font-style="italic" lengthAdjust="spacing" textLength="169" x="1327.3" y="854.104">rest_RESTUpdateStrategy</text><line style="stroke:#181818;stroke-width:0.5;" x1="1274" x2="1519" y1="864" y2="864"/><line style="stroke:#181818;stroke-width:0.5;" x1="1274" x2="1519" y1="872" y2="872"/><ellipse cx="1284" cy="887.636" fill="#84BE84" rx="3" ry="3" style="stroke:#038048;stroke-width:1.0;"/><text fill="#000000" font-family="sans-serif" font-size="14" lengthAdjust="spacing" textLength="169" x="1293" y="892.2399">NamespaceScoped() bool</text><ellipse cx="1284" cy="907.9079" fill="#84BE84" rx="3" ry="3" style="stroke:#038048;stroke-width:1.0;"/><text fill="#000000" font-family="sans-serif" font-size="14" lengthAdjust="spacing" textLength="189" x="1293" y="912.5118">AllowCreateOnUpdate() bool</text><ellipse cx="1284" cy="928.1798" fill="#84BE84" rx="3" ry="3" style="stroke:#038048;stroke-width:1.0;"/><text fill="#000000" font-family="sans-serif" font-size="14" lengthAdjust="spacing" textLength="219" x="1293" y="932.7838">Canonicalize(obj runtime.Object)</text><ellipse cx="1284" cy="948.4517" fill="#84BE84" rx="3" ry="3" style="stroke:#038048;stroke-width:1.0;"/><text fill="#000000" font-family="sans-serif" font-size="14" lengthAdjust="spacing" textLength="221" x="1293" y="953.0557">AllowUnconditionalUpdate() bool</text></g><!--MD5=[25fddefe4faeafb058f08262e5556ee7]
class rest_ResetFieldsStrategy--><g id="elem_rest_ResetFieldsStrategy"><rect codeLine="68" fill="#F1F1F1" height="68.2719" id="rest_ResetFieldsStrategy" rx="2.5" ry="2.5" style="stroke:#181818;stroke-width:0.5;" width="408" x="1555.5" y="862.5"/><ellipse cx="1673.25" cy="878.5" fill="#B4A7E5" rx="11" ry="11" style="stroke:#181818;stroke-width:1.0;"/><path d="M1669.6094,885 L1676.3906,885 L1676.3906,882.9219 L1674.2344,882.9219 L1674.2344,874.4844 L1676.3906,874.4844 L1676.3906,872.375 L1669.6094,872.375 L1669.6094,874.4844 L1671.7031,874.4844 L1671.7031,882.9219 L1669.6094,882.9219 L1669.6094,885 Z " fill="#000000"/><text fill="#000000" font-family="sans-serif" font-size="14" font-style="italic" lengthAdjust="spacing" textLength="164" x="1693.75" y="884.604">rest_ResetFieldsStrategy</text><line style="stroke:#181818;stroke-width:0.5;" x1="1556.5" x2="1962.5" y1="894.5" y2="894.5"/><line style="stroke:#181818;stroke-width:0.5;" x1="1556.5" x2="1962.5" y1="902.5" y2="902.5"/><ellipse cx="1566.5" cy="918.136" fill="#84BE84" rx="3" ry="3" style="stroke:#038048;stroke-width:1.0;"/><text fill="#000000" font-family="sans-serif" font-size="14" lengthAdjust="spacing" textLength="110" x="1575.5" y="922.7399">GetResetFields()</text><text fill="#0000FF" font-family="sans-serif" font-size="14" lengthAdjust="spacing" textLength="30" x="1688.5" y="922.7399">map</text><text fill="#000000" font-family="sans-serif" font-size="14" lengthAdjust="spacing" textLength="239" x="1718.5" y="922.7399">[fieldpath.APIVersion]*fieldpath.Set</text></g><!--MD5=[4458db3fa17ea7d16377070e4d294bec]
class generic_registry_Store--><g id="elem_generic_registry_Store"><rect codeLine="73" fill="#F1F1F1" height="473.7101" id="generic_registry_Store" rx="2.5" ry="2.5" style="stroke:#181818;stroke-width:0.5;" width="301" x="1246" y="237"/><ellipse cx="1318.25" cy="253" fill="#7FFFD4" rx="11" ry="11" style="stroke:#181818;stroke-width:1.0;"/><path d="M1318.4375,259.7031 C1320.7344,259.7031 1322.1875,258.0781 1322.1875,256.0781 C1322.1875,254.25 1321.3594,253.4063 1320.2188,252.6094 L1319.2031,251.8906 C1318.0781,251.0781 1317.6563,250.7813 1317.6563,249.9219 C1317.6563,249.2344 1318.1406,248.8281 1318.7188,248.8281 C1319.4531,248.8281 1319.9375,249.2188 1320.6406,249.8594 L1321.9531,248.2813 C1320.9844,247.2656 1319.9688,246.6719 1318.7031,246.6719 C1316.5625,246.6719 1315.1094,248.1875 1315.1094,250.1094 C1315.1094,251.9063 1316.0313,252.8125 1317.125,253.5625 L1318.2188,254.3125 C1319.1563,254.9219 1319.6094,255.5 1319.6094,256.4375 C1319.6094,257.1094 1319.1406,257.5313 1318.4375,257.5313 C1317.7344,257.5313 1316.9844,257.0156 1316.3281,256.1875 L1314.7813,257.875 C1315.8125,259.0625 1317.1094,259.7031 1318.4375,259.7031 Z " fill="#000000"/><text fill="#000000" font-family="sans-serif" font-size="14" lengthAdjust="spacing" textLength="148" x="1338.75" y="259.104">generic_registry_Store</text><line style="stroke:#181818;stroke-width:0.5;" x1="1247" x2="1546" y1="269" y2="269"/><ellipse cx="1257" cy="284.636" fill="none" rx="3" ry="3" style="stroke:#038048;stroke-width:1.0;"/><text fill="#000000" font-family="sans-serif" font-size="14" lengthAdjust="spacing" textLength="200" x="1266" y="289.2399">EnableGarbageCollection bool</text><ellipse cx="1257" cy="304.9079" fill="none" rx="3" ry="3" style="stroke:#038048;stroke-width:1.0;"/><text fill="#000000" font-family="sans-serif" font-size="14" lengthAdjust="spacing" textLength="183" x="1266" y="309.5118">DeleteCollectionWorkers int</text><ellipse cx="1257" cy="325.1798" fill="none" rx="3" ry="3" style="stroke:#038048;stroke-width:1.0;"/><text fill="#000000" font-family="sans-serif" font-size="14" lengthAdjust="spacing" textLength="230" x="1266" y="329.7838">CreateStrategy RESTCreateStrategy</text><ellipse cx="1257" cy="345.4517" fill="none" rx="3" ry="3" style="stroke:#038048;stroke-width:1.0;"/><text fill="#000000" font-family="sans-serif" font-size="14" lengthAdjust="spacing" textLength="242" x="1266" y="350.0557">UpdateStrategy RESTUpdateStrategy</text><ellipse cx="1257" cy="365.7236" fill="none" rx="3" ry="3" style="stroke:#038048;stroke-width:1.0;"/><text fill="#000000" font-family="sans-serif" font-size="14" lengthAdjust="spacing" textLength="230" x="1266" y="370.3276">DeleteStrategy RESTDeleteStrategy</text><ellipse cx="1257" cy="385.9955" fill="none" rx="3" ry="3" style="stroke:#038048;stroke-width:1.0;"/><text fill="#000000" font-family="sans-serif" font-size="14" lengthAdjust="spacing" textLength="186" x="1266" y="390.5995">AfterDelete AfterDeleteFunc</text><ellipse cx="1257" cy="406.2674" fill="none" rx="3" ry="3" style="stroke:#038048;stroke-width:1.0;"/><text fill="#000000" font-family="sans-serif" font-size="14" lengthAdjust="spacing" textLength="172" x="1266" y="410.8714">ReturnDeletedObject bool</text><ellipse cx="1257" cy="426.5393" fill="none" rx="3" ry="3" style="stroke:#038048;stroke-width:1.0;"/><text fill="#000000" font-family="sans-serif" font-size="14" lengthAdjust="spacing" textLength="205" x="1266" y="431.1433">TableConvertor TableConvertor</text><ellipse cx="1257" cy="446.8112" fill="none" rx="3" ry="3" style="stroke:#038048;stroke-width:1.0;"/><text fill="#000000" font-family="sans-serif" font-size="14" lengthAdjust="spacing" textLength="265" x="1266" y="451.4152">ResetFieldsStrategy ResetFieldsStrategy</text><ellipse cx="1257" cy="467.0832" fill="none" rx="3" ry="3" style="stroke:#038048;stroke-width:1.0;"/><text fill="#000000" font-family="sans-serif" font-size="14" lengthAdjust="spacing" textLength="190" x="1266" y="471.6871">Storage DryRunnableStorage</text><ellipse cx="1257" cy="487.3551" fill="none" rx="3" ry="3" style="stroke:#038048;stroke-width:1.0;"/><text fill="#000000" font-family="sans-serif" font-size="14" lengthAdjust="spacing" textLength="275" x="1266" y="491.959">StorageVersioner runtime.GroupVersioner</text><line style="stroke:#181818;stroke-width:0.5;" x1="1247" x2="1546" y1="499.991" y2="499.991"/><ellipse cx="1257" cy="515.627" fill="#84BE84" rx="3" ry="3" style="stroke:#038048;stroke-width:1.0;"/><text fill="#000000" font-family="sans-serif" font-size="14" lengthAdjust="spacing" textLength="64" x="1266" y="520.231">Decorator</text><text fill="#0000FF" font-family="sans-serif" font-size="14" lengthAdjust="spacing" textLength="30" x="1333" y="520.231">func</text><text fill="#000000" font-family="sans-serif" font-size="14" lengthAdjust="spacing" textLength="110" x="1363" y="520.231">(runtime.Object)</text><ellipse cx="1257" cy="535.8989" fill="#84BE84" rx="3" ry="3" style="stroke:#038048;stroke-width:1.0;"/><text fill="#000000" font-family="sans-serif" font-size="14" lengthAdjust="spacing" textLength="83" x="1266" y="540.5029">DestroyFunc</text><text fill="#0000FF" font-family="sans-serif" font-size="14" lengthAdjust="spacing" textLength="30" x="1352" y="540.5029">func</text><text fill="#000000" font-family="sans-serif" font-size="14" lengthAdjust="spacing" textLength="10" x="1382" y="540.5029">()</text><text fill="#000000" font-family="sans-serif" font-size="14" lengthAdjust="spacing" textLength="3" x="1266" y="560.7748"> </text><ellipse cx="1257" cy="576.4427" fill="#84BE84" rx="3" ry="3" style="stroke:#038048;stroke-width:1.0;"/><text fill="#000000" font-family="sans-serif" font-size="14" lengthAdjust="spacing" textLength="142" x="1266" y="581.0467">New() runtime.Object</text><ellipse cx="1257" cy="596.7146" fill="#84BE84" rx="3" ry="3" style="stroke:#038048;stroke-width:1.0;"/><text fill="#000000" font-family="sans-serif" font-size="14" lengthAdjust="spacing" textLength="60" x="1266" y="601.3186">Destroy()</text><ellipse cx="1257" cy="616.9865" fill="#84BE84" rx="3" ry="3" style="stroke:#038048;stroke-width:1.0;"/><text fill="#000000" font-family="sans-serif" font-size="14" lengthAdjust="spacing" textLength="166" x="1266" y="621.5905">NewList() runtime.Object</text><ellipse cx="1257" cy="637.2585" fill="#84BE84" rx="3" ry="3" style="stroke:#038048;stroke-width:1.0;"/><text fill="#000000" font-family="sans-serif" font-size="14" lengthAdjust="spacing" textLength="169" x="1266" y="641.8624">NamespaceScoped() bool</text><ellipse cx="1257" cy="657.5304" fill="#84BE84" rx="3" ry="3" style="stroke:#038048;stroke-width:1.0;"/><text fill="#000000" font-family="sans-serif" font-size="14" lengthAdjust="spacing" textLength="263" x="1266" y="662.1343">GetCreateStrategy() RESTCreateStrategy</text><ellipse cx="1257" cy="677.8023" fill="#84BE84" rx="3" ry="3" style="stroke:#038048;stroke-width:1.0;"/><text fill="#000000" font-family="sans-serif" font-size="14" lengthAdjust="spacing" textLength="275" x="1266" y="682.4063">GetUpdateStrategy() RESTUpdateStrategy</text><ellipse cx="1257" cy="698.0742" fill="#84BE84" rx="3" ry="3" style="stroke:#038048;stroke-width:1.0;"/><text fill="#000000" font-family="sans-serif" font-size="14" lengthAdjust="spacing" textLength="263" x="1266" y="702.6782">GetDeleteStrategy() RESTDeleteStrategy</text></g><!--MD5=[933c9bcfe7d00d16cfa3e350b8d3cfb4]
reverse link storage_Interface to storage_etcd3_store--><g id="link_storage_Interface_storage_etcd3_store"><path codeLine="97" d="M370.5,197.4876 C370.5,257.6944 370.5,332.186 370.5,388.6781 " fill="none" id="storage_Interface-backto-storage_etcd3_store" style="stroke:#181818;stroke-width:1.0;stroke-dasharray:7.0,7.0;"/><polygon fill="none" points="363.5001,197.2528,370.5,177.2528,377.5001,197.2528,363.5001,197.2528" style="stroke:#181818;stroke-width:1.0;"/></g><!--MD5=[1318a9e83a468d3bb0587f9218b56dea]
reverse link storage_etcd3_store to DryRunnableStorage--><g id="link_storage_etcd3_store_DryRunnableStorage"><path codeLine="98" d="M370.5,579.534 C370.5,637.5797 370.5,709.972 370.5,770.9135 " fill="none" id="storage_etcd3_store-backto-DryRunnableStorage" style="stroke:#181818;stroke-width:1.0;"/><polygon fill="none" points="363.5001,579.245,370.5,559.2449,377.5001,579.2449,363.5001,579.245" style="stroke:#181818;stroke-width:1.0;"/></g><!--MD5=[45d363aeef1e62575496ab1e818aaacd]
reverse link runtime_interface_ObjectTyper to rest_RESTDeleteStrategy--><g id="link_runtime_interface_ObjectTyper_rest_RESTDeleteStrategy"><path codeLine="99" d="M2096.5,539.0947 C2096.5,634.7694 2096.5,808.8889 2096.5,872.4513 " fill="none" id="runtime_interface_ObjectTyper-backto-rest_RESTDeleteStrategy" style="stroke:#181818;stroke-width:1.0;"/><polygon fill="none" points="2089.5001,538.8149,2096.5,518.8149,2103.5001,538.8149,2089.5001,538.8149" style="stroke:#181818;stroke-width:1.0;"/></g><!--MD5=[75b87bb844478a134121c594ced8855c]
reverse link generic_registry_Store to DryRunnableStorage--><g id="link_generic_registry_Store_DryRunnableStorage"><path codeLine="101" d="M1233.499,541.1227 C1083.8556,602.7449 858.2695,695.6397 675.2655,770.9996 " fill="none" id="generic_registry_Store-backto-DryRunnableStorage" style="stroke:#181818;stroke-width:1.0;"/><polygon fill="#181818" points="1245.9368,536.0009,1238.8657,534.5869,1234.8408,540.5702,1241.9119,541.9842,1245.9368,536.0009" style="stroke:#181818;stroke-width:1.0;"/></g><!--MD5=[a3e8231aadfd50f10c12fc2dbc469e95]
reverse link generic_registry_Store to rest_RESTCreateStrategy--><g id="link_generic_registry_Store_rest_RESTCreateStrategy"><path codeLine="102" d="M1236.8442,645.6401 C1179.7927,706.9741 1118.4435,772.9284 1072.9744,821.8105 " fill="none" id="generic_registry_Store-backto-rest_RESTCreateStrategy" style="stroke:#181818;stroke-width:1.0;"/><polygon fill="#181818" points="1245.9607,635.8394,1238.9454,637.5083,1237.7877,644.6259,1244.803,642.957,1245.9607,635.8394" style="stroke:#181818;stroke-width:1.0;"/></g><!--MD5=[8c33dcee3b3ceea0646bff085e916843]
reverse link generic_registry_Store to rest_RESTUpdateStrategy--><g id="link_generic_registry_Store_rest_RESTUpdateStrategy"><path codeLine="103" d="M1396.5,724.3968 C1396.5,764.0172 1396.5,801.7338 1396.5,831.7059 " fill="none" id="generic_registry_Store-backto-rest_RESTUpdateStrategy" style="stroke:#181818;stroke-width:1.0;"/><polygon fill="#181818" points="1396.5,711.1853,1392.5,717.1853,1396.5,723.1853,1400.5,717.1853,1396.5,711.1853" style="stroke:#181818;stroke-width:1.0;"/></g><!--MD5=[cc7da561751a7762fe55c229924fae79]
reverse link generic_registry_Store to rest_RESTDeleteStrategy--><g id="link_generic_registry_Store_rest_RESTDeleteStrategy"><path codeLine="104" d="M1559.0831,557.6402 C1647.9994,603.2324 1760.1682,660.5031 1860.5,711 C1914.1182,737.986 1933.5215,734.9275 1981.5,771 C2020.9468,800.658 2057.8664,845.0284 2078.7693,872.2951 " fill="none" id="generic_registry_Store-backto-rest_RESTDeleteStrategy" style="stroke:#181818;stroke-width:1.0;"/><polygon fill="#181818" points="1547.2504,551.5715,1550.7637,557.8688,1557.9279,557.0478,1554.4146,550.7505,1547.2504,551.5715" style="stroke:#181818;stroke-width:1.0;"/></g><!--MD5=[f4682779a0abc7f5d99dd5c6fd515509]
reverse link generic_registry_Store to rest_ResetFieldsStrategy--><g id="link_generic_registry_Store_rest_ResetFieldsStrategy"><path codeLine="105" d="M1555.8783,659.5023 C1621.7814,736.2077 1691.6342,817.5102 1729.9802,862.1416 " fill="none" id="generic_registry_Store-backto-rest_ResetFieldsStrategy" style="stroke:#181818;stroke-width:1.0;"/><polygon fill="#181818" points="1547.0287,649.2021,1547.9048,656.3598,1554.8489,658.304,1553.9728,651.1463,1547.0287,649.2021" style="stroke:#181818;stroke-width:1.0;"/></g><!--MD5=[036b1002817fe097c0d0ed25312bf13f]
@startuml
    class DryRunnableStorage << (S,Aquamarine) >> {
        + Storage storage.Interface
        + Codec runtime.Codec

        - copyInto(in runtime.Object, out runtime.Object) error

        + Versioner() storage.Versioner
        + Create(ctx context.Context, key string, obj runtime.Object, out runtime.Object, ttl uint64, dryRun bool) error
        + Watch(ctx context.Context, key string, opts storage.ListOptions) (watch.Interface, error)
        + Get(ctx context.Context, key string, opts storage.GetOptions, objPtr runtime.Object) error
        + GetList(ctx context.Context, key string, opts storage.ListOptions, listObj runtime.Object) error
        + Count(key string) (int64, error)

    }

    class storage_etcd3_store << (S,Aquamarine) >> {

        + Versioner() storage.Versioner
        + Get(ctx context.Context, key string, opts storage.GetOptions, out runtime.Object) error
        + Create(ctx context.Context, key string, obj runtime.Object, out runtime.Object, ttl uint64) error
        + Count(key string) (int64, error)
        + GetList(ctx context.Context, key string, opts storage.ListOptions, listObj runtime.Object) error
        + Watch(ctx context.Context, key string, opts storage.ListOptions) (watch.Interface, error)

    }

        interface storage_Interface  {
        + Versioner() Versioner
        + Create(ctx context.Context, key string, obj runtime.Object, out runtime.Object, ttl uint64) error
        ' + Delete(ctx context.Context, key string, out runtime.Object, preconditions *Preconditions, validateDeletion ValidateObjectFunc, cachedExistingObject runtime.Object) error
        + Watch(ctx context.Context, key string, opts ListOptions) (watch.Interface, error)
        + Get(ctx context.Context, key string, opts GetOptions, objPtr runtime.Object) error
        + GetList(ctx context.Context, key string, opts ListOptions, listObj runtime.Object) error
        ' + GuaranteedUpdate(ctx context.Context, key string, destination runtime.Object, ignoreNotFound bool, preconditions *Preconditions, tryUpdate UpdateFunc, cachedExistingObject runtime.Object) error
        + Count(key string) (int64, error)

    }

    interface rest_RESTCreateStrategy  {
        + NamespaceScoped() bool
        + PrepareForCreate(ctx context.Context, obj runtime.Object) 
        + Validate(ctx context.Context, obj runtime.Object) field.ErrorList
        + WarningsOnCreate(ctx context.Context, obj runtime.Object) []string
        + Canonicalize(obj runtime.Object) 

    }

    interface runtime_interface_ObjectTyper  {
        + ObjectKinds( Object) ([]schema.GroupVersionKind, bool, error)
        + Recognizes(gvk schema.GroupVersionKind) bool

    }

    interface rest_RESTDeleteStrategy  {
    }

    interface rest_RESTUpdateStrategy  {
        + NamespaceScoped() bool
        + AllowCreateOnUpdate() bool
        ' + PrepareForUpdate(ctx context.Context, obj runtime.Object, old runtime.Object) 
        ' + ValidateUpdate(ctx context.Context, obj runtime.Object, old runtime.Object) field.ErrorList
        ' + WarningsOnUpdate(ctx context.Context, obj runtime.Object, old runtime.Object) []string
        + Canonicalize(obj runtime.Object) 
        + AllowUnconditionalUpdate() bool

    }

        interface rest_ResetFieldsStrategy  {
        + GetResetFields() <font color=blue>map</font>[fieldpath.APIVersion]*fieldpath.Set

    }

    class generic_registry_Store << (S,Aquamarine) >> {
        + EnableGarbageCollection bool
        + DeleteCollectionWorkers int
        + Decorator <font color=blue>func</font>(runtime.Object) 
        + CreateStrategy RESTCreateStrategy
        + UpdateStrategy RESTUpdateStrategy
        + DeleteStrategy RESTDeleteStrategy
        + AfterDelete AfterDeleteFunc
        + ReturnDeletedObject bool
        + TableConvertor TableConvertor
        + ResetFieldsStrategy ResetFieldsStrategy
        + Storage DryRunnableStorage
        + StorageVersioner runtime.GroupVersioner
        + DestroyFunc <font color=blue>func</font>() 

        + New() runtime.Object
        + Destroy() 
        + NewList() runtime.Object
        + NamespaceScoped() bool
        + GetCreateStrategy() RESTCreateStrategy
        + GetUpdateStrategy() RESTUpdateStrategy
        + GetDeleteStrategy() RESTDeleteStrategy
    }

"storage_Interface" <|.. "storage_etcd3_store"
"storage_etcd3_store" <|- - "DryRunnableStorage"
"runtime_interface_ObjectTyper" <|- - "rest_RESTDeleteStrategy"

"generic_registry_Store" *- - "DryRunnableStorage"
"generic_registry_Store" *- - "rest_RESTCreateStrategy"
"generic_registry_Store" *- - "rest_RESTUpdateStrategy"
"generic_registry_Store" *- - "rest_RESTDeleteStrategy"
"generic_registry_Store" *- - "rest_ResetFieldsStrategy"

@enduml

@startuml
    class DryRunnableStorage << (S,Aquamarine) >> {
        + Storage storage.Interface
        + Codec runtime.Codec

        - copyInto(in runtime.Object, out runtime.Object) error

        + Versioner() storage.Versioner
        + Create(ctx context.Context, key string, obj runtime.Object, out runtime.Object, ttl uint64, dryRun bool) error
        + Watch(ctx context.Context, key string, opts storage.ListOptions) (watch.Interface, error)
        + Get(ctx context.Context, key string, opts storage.GetOptions, objPtr runtime.Object) error
        + GetList(ctx context.Context, key string, opts storage.ListOptions, listObj runtime.Object) error
        + Count(key string) (int64, error)

    }

    class storage_etcd3_store << (S,Aquamarine) >> {

        + Versioner() storage.Versioner
        + Get(ctx context.Context, key string, opts storage.GetOptions, out runtime.Object) error
        + Create(ctx context.Context, key string, obj runtime.Object, out runtime.Object, ttl uint64) error
        + Count(key string) (int64, error)
        + GetList(ctx context.Context, key string, opts storage.ListOptions, listObj runtime.Object) error
        + Watch(ctx context.Context, key string, opts storage.ListOptions) (watch.Interface, error)

    }

        interface storage_Interface  {
        + Versioner() Versioner
        + Create(ctx context.Context, key string, obj runtime.Object, out runtime.Object, ttl uint64) error
        + Watch(ctx context.Context, key string, opts ListOptions) (watch.Interface, error)
        + Get(ctx context.Context, key string, opts GetOptions, objPtr runtime.Object) error
        + GetList(ctx context.Context, key string, opts ListOptions, listObj runtime.Object) error
        + Count(key string) (int64, error)

    }

    interface rest_RESTCreateStrategy  {
        + NamespaceScoped() bool
        + PrepareForCreate(ctx context.Context, obj runtime.Object) 
        + Validate(ctx context.Context, obj runtime.Object) field.ErrorList
        + WarningsOnCreate(ctx context.Context, obj runtime.Object) []string
        + Canonicalize(obj runtime.Object) 

    }

    interface runtime_interface_ObjectTyper  {
        + ObjectKinds( Object) ([]schema.GroupVersionKind, bool, error)
        + Recognizes(gvk schema.GroupVersionKind) bool

    }

    interface rest_RESTDeleteStrategy  {
    }

    interface rest_RESTUpdateStrategy  {
        + NamespaceScoped() bool
        + AllowCreateOnUpdate() bool
        + Canonicalize(obj runtime.Object) 
        + AllowUnconditionalUpdate() bool

    }

        interface rest_ResetFieldsStrategy  {
        + GetResetFields() <font color=blue>map</font>[fieldpath.APIVersion]*fieldpath.Set

    }

    class generic_registry_Store << (S,Aquamarine) >> {
        + EnableGarbageCollection bool
        + DeleteCollectionWorkers int
        + Decorator <font color=blue>func</font>(runtime.Object) 
        + CreateStrategy RESTCreateStrategy
        + UpdateStrategy RESTUpdateStrategy
        + DeleteStrategy RESTDeleteStrategy
        + AfterDelete AfterDeleteFunc
        + ReturnDeletedObject bool
        + TableConvertor TableConvertor
        + ResetFieldsStrategy ResetFieldsStrategy
        + Storage DryRunnableStorage
        + StorageVersioner runtime.GroupVersioner
        + DestroyFunc <font color=blue>func</font>() 

        + New() runtime.Object
        + Destroy() 
        + NewList() runtime.Object
        + NamespaceScoped() bool
        + GetCreateStrategy() RESTCreateStrategy
        + GetUpdateStrategy() RESTUpdateStrategy
        + GetDeleteStrategy() RESTDeleteStrategy
    }

"storage_Interface" <|.. "storage_etcd3_store"
"storage_etcd3_store" <|- - "DryRunnableStorage"
"runtime_interface_ObjectTyper" <|- - "rest_RESTDeleteStrategy"

"generic_registry_Store" *- - "DryRunnableStorage"
"generic_registry_Store" *- - "rest_RESTCreateStrategy"
"generic_registry_Store" *- - "rest_RESTUpdateStrategy"
"generic_registry_Store" *- - "rest_RESTDeleteStrategy"
"generic_registry_Store" *- - "rest_ResetFieldsStrategy"

@enduml

PlantUML version 1.2022.7(Tue Aug 23 01:01:30 CST 2022)
(GPL source distribution)
Java Runtime: OpenJDK Runtime Environment
JVM: OpenJDK 64-Bit Server VM
Default Encoding: UTF-8
Language: zh
Country: CN
--></g></svg>