<?xml version="1.0" encoding="UTF-8" standalone="no"?><svg xmlns="http://www.w3.org/2000/svg" xmlns:xlink="http://www.w3.org/1999/xlink" contentStyleType="text/css" height="878px" preserveAspectRatio="none" style="width:2387px;height:878px;background:#FFFFFF;" version="1.1" viewBox="0 0 2387 878" width="2387px" zoomAndPan="magnify"><defs/><g><!--MD5=[4ac75f36695ece63879c728112de416c]
cluster json--><g id="cluster_json"><path d="M351.5,167.532 L381.5,167.532 A3.75,3.75 0 0 1 384,170.032 L391,193.8039 L926.5,193.8039 A2.5,2.5 0 0 1 929,196.3039 L929,405.032 A2.5,2.5 0 0 1 926.5,407.532 L351.5,407.532 A2.5,2.5 0 0 1 349,405.032 L349,170.032 A2.5,2.5 0 0 1 351.5,167.532 " fill="none" style="stroke:#000000;stroke-width:1.5;"/><line style="stroke:#000000;stroke-width:1.5;" x1="349" x2="391" y1="193.8039" y2="193.8039"/><text fill="#000000" font-family="sans-serif" font-size="14" font-weight="bold" lengthAdjust="spacing" textLength="29" x="353" y="185.7719">json</text></g><!--MD5=[33a2e73ce42738169113bbefecdbc815]
cluster recognizer--><g id="cluster_recognizer"><path d="M159.5,37.032 L232.5,37.032 A3.75,3.75 0 0 1 235,39.532 L242,63.3039 L338.5,63.3039 A2.5,2.5 0 0 1 341,65.8039 L341,274.532 A2.5,2.5 0 0 1 338.5,277.032 L159.5,277.032 A2.5,2.5 0 0 1 157,274.532 L157,39.532 A2.5,2.5 0 0 1 159.5,37.032 " fill="none" style="stroke:#000000;stroke-width:1.5;"/><line style="stroke:#000000;stroke-width:1.5;" x1="157" x2="242" y1="63.3039" y2="63.3039"/><text fill="#000000" font-family="sans-serif" font-size="14" font-weight="bold" lengthAdjust="spacing" textLength="72" x="161" y="55.2719">recognizer</text></g><!--MD5=[3f6c47b98c965a134daea94e03c12f4e]
cluster protobuf--><g id="cluster_protobuf"><path d="M949.5,198.032 L1012.5,198.032 A3.75,3.75 0 0 1 1015,200.532 L1022,224.3039 L1650.5,224.3039 A2.5,2.5 0 0 1 1653,226.8039 L1653,405.032 A2.5,2.5 0 0 1 1650.5,407.532 L949.5,407.532 A2.5,2.5 0 0 1 947,405.032 L947,200.532 A2.5,2.5 0 0 1 949.5,198.032 " fill="none" style="stroke:#000000;stroke-width:1.5;"/><line style="stroke:#000000;stroke-width:1.5;" x1="947" x2="1022" y1="224.3039" y2="224.3039"/><text fill="#000000" font-family="sans-serif" font-size="14" font-weight="bold" lengthAdjust="spacing" textLength="62" x="951" y="216.2719">protobuf</text></g><!--MD5=[73d6a07de096a2d86731870400b8a0f6]
cluster serializer--><g id="cluster_serializer"><path d="M301.5,428.532 L364.5,428.532 A3.75,3.75 0 0 1 367,431.032 L374,454.8039 L1116.5,454.8039 A2.5,2.5 0 0 1 1119,457.3039 L1119,869.032 A2.5,2.5 0 0 1 1116.5,871.532 L301.5,871.532 A2.5,2.5 0 0 1 299,869.032 L299,431.032 A2.5,2.5 0 0 1 301.5,428.532 " fill="none" style="stroke:#000000;stroke-width:1.5;"/><line style="stroke:#000000;stroke-width:1.5;" x1="299" x2="374" y1="454.8039" y2="454.8039"/><text fill="#000000" font-family="sans-serif" font-size="14" font-weight="bold" lengthAdjust="spacing" textLength="62" x="303" y="446.7719">serializer</text></g><!--MD5=[28914f3f35b2dee858d4c6c333a3e34b]
cluster streaming--><g id="cluster_streaming"><path d="M1674.5,37.032 L1745.5,37.032 A3.75,3.75 0 0 1 1748,39.532 L1755,63.3039 L2101.5,63.3039 A2.5,2.5 0 0 1 2104,65.8039 L2104,274.532 A2.5,2.5 0 0 1 2101.5,277.032 L1674.5,277.032 A2.5,2.5 0 0 1 1672,274.532 L1672,39.532 A2.5,2.5 0 0 1 1674.5,37.032 " fill="none" style="stroke:#000000;stroke-width:1.5;"/><line style="stroke:#000000;stroke-width:1.5;" x1="1672" x2="1755" y1="63.3039" y2="63.3039"/><text fill="#000000" font-family="sans-serif" font-size="14" font-weight="bold" lengthAdjust="spacing" textLength="70" x="1676" y="55.2719">streaming</text></g><!--MD5=[0bc645889ca28021e545173150be32d7]
cluster versioning--><g id="cluster_versioning"><path d="M2125.5,6.532 L2198.5,6.532 A3.75,3.75 0 0 1 2201,9.032 L2208,32.8039 L2377.5,32.8039 A2.5,2.5 0 0 1 2380,35.3039 L2380,144.032 A2.5,2.5 0 0 1 2377.5,146.532 L2125.5,146.532 A2.5,2.5 0 0 1 2123,144.032 L2123,9.032 A2.5,2.5 0 0 1 2125.5,6.532 " fill="none" style="stroke:#000000;stroke-width:1.5;"/><line style="stroke:#000000;stroke-width:1.5;" x1="2123" x2="2208" y1="32.8039" y2="32.8039"/><text fill="#000000" font-family="sans-serif" font-size="14" font-weight="bold" lengthAdjust="spacing" textLength="72" x="2127" y="24.7719">versioning</text></g><!--MD5=[f42b1e4838ba59ae9f18e9e0098237a1]
cluster yaml--><g id="cluster_yaml"><path d="M8.5,328.532 L43.5,328.532 A3.75,3.75 0 0 1 46,331.032 L53,354.8039 L338.5,354.8039 A2.5,2.5 0 0 1 341,357.3039 L341,405.032 A2.5,2.5 0 0 1 338.5,407.532 L8.5,407.532 A2.5,2.5 0 0 1 6,405.032 L6,331.032 A2.5,2.5 0 0 1 8.5,328.532 " fill="none" style="stroke:#000000;stroke-width:1.5;"/><line style="stroke:#000000;stroke-width:1.5;" x1="6" x2="53" y1="354.8039" y2="354.8039"/><text fill="#000000" font-family="sans-serif" font-size="14" font-weight="bold" lengthAdjust="spacing" textLength="34" x="10" y="346.7719">yaml</text></g><!--MD5=[58f92eeca1b9b283e19d96b306260adc]
cluster runtime--><g id="cluster_runtime"><path d="M24.5,198.032 L81.5,198.032 A3.75,3.75 0 0 1 84,200.532 L91,224.3039 L129.5,224.3039 A2.5,2.5 0 0 1 132,226.8039 L132,274.532 A2.5,2.5 0 0 1 129.5,277.032 L24.5,277.032 A2.5,2.5 0 0 1 22,274.532 L22,200.532 A2.5,2.5 0 0 1 24.5,198.032 " fill="none" style="stroke:#000000;stroke-width:1.5;"/><line style="stroke:#000000;stroke-width:1.5;" x1="22" x2="91" y1="224.3039" y2="224.3039"/><text fill="#000000" font-family="sans-serif" font-size="14" font-weight="bold" lengthAdjust="spacing" textLength="56" x="26" y="216.2719">runtime</text></g><!--MD5=[0ec8fbad93c8a2031683f11a956bd4a3]
class json.MetaFactory--><g id="elem_json.MetaFactory"><rect codeLine="2" fill="#F1F1F1" height="40" id="json.MetaFactory" rx="2.5" ry="2.5" style="stroke:#181818;stroke-width:0.5;" width="112" x="486" y="229.032"/><ellipse cx="501" cy="245.032" fill="#B4A7E5" rx="11" ry="11" style="stroke:#181818;stroke-width:1.0;"/><path d="M497.3594,251.532 L504.1406,251.532 L504.1406,249.4539 L501.9844,249.4539 L501.9844,241.0164 L504.1406,241.0164 L504.1406,238.907 L497.3594,238.907 L497.3594,241.0164 L499.4531,241.0164 L499.4531,249.4539 L497.3594,249.4539 L497.3594,251.532 Z " fill="#000000"/><text fill="#000000" font-family="sans-serif" font-size="14" font-style="italic" lengthAdjust="spacing" textLength="80" x="515" y="251.136">MetaFactory</text><line style="stroke:#181818;stroke-width:0.5;" x1="487" x2="597" y1="261.032" y2="261.032"/></g><!--MD5=[09afa6c0c99a40e6c7e35f4e593ebb55]
class json.Serializer--><g id="elem_json.Serializer"><rect codeLine="6" fill="#F1F1F1" height="40" id="json.Serializer" rx="2.5" ry="2.5" style="stroke:#181818;stroke-width:0.5;" width="93" x="357.5" y="229.032"/><ellipse cx="372.5" cy="245.032" fill="#7FFFD4" rx="11" ry="11" style="stroke:#181818;stroke-width:1.0;"/><path d="M372.6875,251.7351 C374.9844,251.7351 376.4375,250.1101 376.4375,248.1101 C376.4375,246.282 375.6094,245.4382 374.4688,244.6414 L373.4531,243.9226 C372.3281,243.1101 371.9063,242.8132 371.9063,241.9539 C371.9063,241.2664 372.3906,240.8601 372.9688,240.8601 C373.7031,240.8601 374.1875,241.2507 374.8906,241.8914 L376.2031,240.3132 C375.2344,239.2976 374.2188,238.7039 372.9531,238.7039 C370.8125,238.7039 369.3594,240.2195 369.3594,242.1414 C369.3594,243.9382 370.2813,244.8445 371.375,245.5945 L372.4688,246.3445 C373.4063,246.9539 373.8594,247.532 373.8594,248.4695 C373.8594,249.1414 373.3906,249.5632 372.6875,249.5632 C371.9844,249.5632 371.2344,249.0476 370.5781,248.2195 L369.0313,249.907 C370.0625,251.0945 371.3594,251.7351 372.6875,251.7351 Z " fill="#000000"/><text fill="#000000" font-family="sans-serif" font-size="14" lengthAdjust="spacing" textLength="61" x="386.5" y="251.136">Serializer</text><line style="stroke:#181818;stroke-width:0.5;" x1="358.5" x2="449.5" y1="261.032" y2="261.032"/></g><!--MD5=[2a3a5592379bba7460e54544579acc70]
class json.SerializerOptions--><g id="elem_json.SerializerOptions"><rect codeLine="14" fill="#F1F1F1" height="100.8157" id="json.SerializerOptions" rx="2.5" ry="2.5" style="stroke:#181818;stroke-width:0.5;" width="145" x="633.5" y="198.532"/><ellipse cx="648.5" cy="214.532" fill="#7FFFD4" rx="11" ry="11" style="stroke:#181818;stroke-width:1.0;"/><path d="M648.6875,221.2351 C650.9844,221.2351 652.4375,219.6101 652.4375,217.6101 C652.4375,215.782 651.6094,214.9382 650.4688,214.1414 L649.4531,213.4226 C648.3281,212.6101 647.9063,212.3132 647.9063,211.4539 C647.9063,210.7664 648.3906,210.3601 648.9688,210.3601 C649.7031,210.3601 650.1875,210.7507 650.8906,211.3914 L652.2031,209.8132 C651.2344,208.7976 650.2188,208.2039 648.9531,208.2039 C646.8125,208.2039 645.3594,209.7195 645.3594,211.6414 C645.3594,213.4382 646.2813,214.3445 647.375,215.0945 L648.4688,215.8445 C649.4063,216.4539 649.8594,217.032 649.8594,217.9695 C649.8594,218.6414 649.3906,219.0632 648.6875,219.0632 C647.9844,219.0632 647.2344,218.5476 646.5781,217.7195 L645.0313,219.407 C646.0625,220.5945 647.3594,221.2351 648.6875,221.2351 Z " fill="#000000"/><text fill="#000000" font-family="sans-serif" font-size="14" lengthAdjust="spacing" textLength="113" x="662.5" y="220.636">SerializerOptions</text><line style="stroke:#181818;stroke-width:0.5;" x1="634.5" x2="777.5" y1="230.532" y2="230.532"/><ellipse cx="644.5" cy="246.1679" fill="none" rx="3" ry="3" style="stroke:#038048;stroke-width:1.0;"/><text fill="#000000" font-family="sans-serif" font-size="14" lengthAdjust="spacing" textLength="64" x="653.5" y="250.7719">Yaml bool</text><ellipse cx="644.5" cy="266.4398" fill="none" rx="3" ry="3" style="stroke:#038048;stroke-width:1.0;"/><text fill="#000000" font-family="sans-serif" font-size="14" lengthAdjust="spacing" textLength="71" x="653.5" y="271.0438">Pretty bool</text><ellipse cx="644.5" cy="286.7118" fill="none" rx="3" ry="3" style="stroke:#038048;stroke-width:1.0;"/><text fill="#000000" font-family="sans-serif" font-size="14" lengthAdjust="spacing" textLength="66" x="653.5" y="291.3157">Strict bool</text></g><!--MD5=[14774334f0e6c79a28fdd756e4cdc49d]
class json.SimpleMetaFactory--><g id="elem_json.SimpleMetaFactory"><rect codeLine="20" fill="#F1F1F1" height="40" id="json.SimpleMetaFactory" rx="2.5" ry="2.5" style="stroke:#181818;stroke-width:0.5;" width="158" x="436" y="359.532"/><ellipse cx="451" cy="375.532" fill="#7FFFD4" rx="11" ry="11" style="stroke:#181818;stroke-width:1.0;"/><path d="M451.1875,382.2351 C453.4844,382.2351 454.9375,380.6101 454.9375,378.6101 C454.9375,376.782 454.1094,375.9382 452.9688,375.1414 L451.9531,374.4226 C450.8281,373.6101 450.4063,373.3132 450.4063,372.4539 C450.4063,371.7664 450.8906,371.3601 451.4688,371.3601 C452.2031,371.3601 452.6875,371.7507 453.3906,372.3914 L454.7031,370.8132 C453.7344,369.7976 452.7188,369.2039 451.4531,369.2039 C449.3125,369.2039 447.8594,370.7195 447.8594,372.6414 C447.8594,374.4382 448.7813,375.3445 449.875,376.0945 L450.9688,376.8445 C451.9063,377.4539 452.3594,378.032 452.3594,378.9695 C452.3594,379.6414 451.8906,380.0632 451.1875,380.0632 C450.4844,380.0632 449.7344,379.5476 449.0781,378.7195 L447.5313,380.407 C448.5625,381.5945 449.8594,382.2351 451.1875,382.2351 Z " fill="#000000"/><text fill="#000000" font-family="sans-serif" font-size="14" lengthAdjust="spacing" textLength="126" x="465" y="381.636">SimpleMetaFactory</text><line style="stroke:#181818;stroke-width:0.5;" x1="437" x2="593" y1="391.532" y2="391.532"/></g><!--MD5=[1ccb668fbec3fd0ac89d840f36e5113d]
class json.jsonFramer--><g id="elem_json.jsonFramer"><rect codeLine="24" fill="#F1F1F1" height="40" id="json.jsonFramer" rx="2.5" ry="2.5" style="stroke:#181818;stroke-width:0.5;" width="107" x="813.5" y="229.032"/><ellipse cx="828.5" cy="245.032" fill="#7FFFD4" rx="11" ry="11" style="stroke:#181818;stroke-width:1.0;"/><path d="M828.6875,251.7351 C830.9844,251.7351 832.4375,250.1101 832.4375,248.1101 C832.4375,246.282 831.6094,245.4382 830.4688,244.6414 L829.4531,243.9226 C828.3281,243.1101 827.9063,242.8132 827.9063,241.9539 C827.9063,241.2664 828.3906,240.8601 828.9688,240.8601 C829.7031,240.8601 830.1875,241.2507 830.8906,241.8914 L832.2031,240.3132 C831.2344,239.2976 830.2188,238.7039 828.9531,238.7039 C826.8125,238.7039 825.3594,240.2195 825.3594,242.1414 C825.3594,243.9382 826.2813,244.8445 827.375,245.5945 L828.4688,246.3445 C829.4063,246.9539 829.8594,247.532 829.8594,248.4695 C829.8594,249.1414 829.3906,249.5632 828.6875,249.5632 C827.9844,249.5632 827.2344,249.0476 826.5781,248.2195 L825.0313,249.907 C826.0625,251.0945 827.3594,251.7351 828.6875,251.7351 Z " fill="#000000"/><text fill="#000000" font-family="sans-serif" font-size="14" lengthAdjust="spacing" textLength="75" x="842.5" y="251.136">jsonFramer</text><line style="stroke:#181818;stroke-width:0.5;" x1="814.5" x2="919.5" y1="261.032" y2="261.032"/></g><!--MD5=[2bc4fcd252f1fc3ffa3f7c7edad6a0ef]
class json.yamlFrameWriter--><g id="elem_json.yamlFrameWriter"><rect codeLine="29" fill="#F1F1F1" height="40" id="json.yamlFrameWriter" rx="2.5" ry="2.5" style="stroke:#181818;stroke-width:0.5;" width="145" x="629.5" y="359.532"/><ellipse cx="644.5" cy="375.532" fill="#7FFFD4" rx="11" ry="11" style="stroke:#181818;stroke-width:1.0;"/><path d="M644.6875,382.2351 C646.9844,382.2351 648.4375,380.6101 648.4375,378.6101 C648.4375,376.782 647.6094,375.9382 646.4688,375.1414 L645.4531,374.4226 C644.3281,373.6101 643.9063,373.3132 643.9063,372.4539 C643.9063,371.7664 644.3906,371.3601 644.9688,371.3601 C645.7031,371.3601 646.1875,371.7507 646.8906,372.3914 L648.2031,370.8132 C647.2344,369.7976 646.2188,369.2039 644.9531,369.2039 C642.8125,369.2039 641.3594,370.7195 641.3594,372.6414 C641.3594,374.4382 642.2813,375.3445 643.375,376.0945 L644.4688,376.8445 C645.4063,377.4539 645.8594,378.032 645.8594,378.9695 C645.8594,379.6414 645.3906,380.0632 644.6875,380.0632 C643.9844,380.0632 643.2344,379.5476 642.5781,378.7195 L641.0313,380.407 C642.0625,381.5945 643.3594,382.2351 644.6875,382.2351 Z " fill="#000000"/><text fill="#000000" font-family="sans-serif" font-size="14" lengthAdjust="spacing" textLength="113" x="658.5" y="381.636">yamlFrameWriter</text><line style="stroke:#181818;stroke-width:0.5;" x1="630.5" x2="773.5" y1="391.532" y2="391.532"/></g><!--MD5=[90c7402a24e6f43dd15b540eb41b1b7d]
class json.yamlFramer--><g id="elem_json.yamlFramer"><rect codeLine="33" fill="#F1F1F1" height="40" id="json.yamlFramer" rx="2.5" ry="2.5" style="stroke:#181818;stroke-width:0.5;" width="111" x="809.5" y="359.532"/><ellipse cx="824.5" cy="375.532" fill="#7FFFD4" rx="11" ry="11" style="stroke:#181818;stroke-width:1.0;"/><path d="M824.6875,382.2351 C826.9844,382.2351 828.4375,380.6101 828.4375,378.6101 C828.4375,376.782 827.6094,375.9382 826.4688,375.1414 L825.4531,374.4226 C824.3281,373.6101 823.9063,373.3132 823.9063,372.4539 C823.9063,371.7664 824.3906,371.3601 824.9688,371.3601 C825.7031,371.3601 826.1875,371.7507 826.8906,372.3914 L828.2031,370.8132 C827.2344,369.7976 826.2188,369.2039 824.9531,369.2039 C822.8125,369.2039 821.3594,370.7195 821.3594,372.6414 C821.3594,374.4382 822.2813,375.3445 823.375,376.0945 L824.4688,376.8445 C825.4063,377.4539 825.8594,378.032 825.8594,378.9695 C825.8594,379.6414 825.3906,380.0632 824.6875,380.0632 C823.9844,380.0632 823.2344,379.5476 822.5781,378.7195 L821.0313,380.407 C822.0625,381.5945 823.3594,382.2351 824.6875,382.2351 Z " fill="#000000"/><text fill="#000000" font-family="sans-serif" font-size="14" lengthAdjust="spacing" textLength="79" x="838.5" y="381.636">yamlFramer</text><line style="stroke:#181818;stroke-width:0.5;" x1="810.5" x2="919.5" y1="391.532" y2="391.532"/></g><!--MD5=[7e342cacf6460661cf8b4f183a7d95cd]
class recognizer.RecognizingDecoder--><g id="elem_recognizer.RecognizingDecoder"><rect codeLine="78" fill="#F1F1F1" height="40" id="recognizer.RecognizingDecoder" rx="2.5" ry="2.5" style="stroke:#181818;stroke-width:0.5;" width="168" x="165" y="68.032"/><ellipse cx="180" cy="84.032" fill="#B4A7E5" rx="11" ry="11" style="stroke:#181818;stroke-width:1.0;"/><path d="M176.3594,90.532 L183.1406,90.532 L183.1406,88.4539 L180.9844,88.4539 L180.9844,80.0164 L183.1406,80.0164 L183.1406,77.907 L176.3594,77.907 L176.3594,80.0164 L178.4531,80.0164 L178.4531,88.4539 L176.3594,88.4539 L176.3594,90.532 Z " fill="#000000"/><text fill="#000000" font-family="sans-serif" font-size="14" font-style="italic" lengthAdjust="spacing" textLength="136" x="194" y="90.136">RecognizingDecoder</text><line style="stroke:#181818;stroke-width:0.5;" x1="166" x2="332" y1="100.032" y2="100.032"/></g><!--MD5=[aec1cb30efe7363d8cd4a8a541af2d98]
class recognizer.decoder--><g id="elem_recognizer.decoder"><rect codeLine="82" fill="#F1F1F1" height="40" id="recognizer.decoder" rx="2.5" ry="2.5" style="stroke:#181818;stroke-width:0.5;" width="86" x="206" y="229.032"/><ellipse cx="221" cy="245.032" fill="#7FFFD4" rx="11" ry="11" style="stroke:#181818;stroke-width:1.0;"/><path d="M221.1875,251.7351 C223.4844,251.7351 224.9375,250.1101 224.9375,248.1101 C224.9375,246.282 224.1094,245.4382 222.9688,244.6414 L221.9531,243.9226 C220.8281,243.1101 220.4063,242.8132 220.4063,241.9539 C220.4063,241.2664 220.8906,240.8601 221.4688,240.8601 C222.2031,240.8601 222.6875,241.2507 223.3906,241.8914 L224.7031,240.3132 C223.7344,239.2976 222.7188,238.7039 221.4531,238.7039 C219.3125,238.7039 217.8594,240.2195 217.8594,242.1414 C217.8594,243.9382 218.7813,244.8445 219.875,245.5945 L220.9688,246.3445 C221.9063,246.9539 222.3594,247.532 222.3594,248.4695 C222.3594,249.1414 221.8906,249.5632 221.1875,249.5632 C220.4844,249.5632 219.7344,249.0476 219.0781,248.2195 L217.5313,249.907 C218.5625,251.0945 219.8594,251.7351 221.1875,251.7351 Z " fill="#000000"/><text fill="#000000" font-family="sans-serif" font-size="14" lengthAdjust="spacing" textLength="54" x="235" y="251.136">decoder</text><line style="stroke:#181818;stroke-width:0.5;" x1="207" x2="291" y1="261.032" y2="261.032"/></g><!--MD5=[989b70959a9c0a23fd0e3dd8a1e76752]
class protobuf.RawSerializer--><g id="elem_protobuf.RawSerializer"><rect codeLine="44" fill="#F1F1F1" height="40" id="protobuf.RawSerializer" rx="2.5" ry="2.5" style="stroke:#181818;stroke-width:0.5;" width="121" x="1083.5" y="229.032"/><ellipse cx="1098.5" cy="245.032" fill="#7FFFD4" rx="11" ry="11" style="stroke:#181818;stroke-width:1.0;"/><path d="M1098.6875,251.7351 C1100.9844,251.7351 1102.4375,250.1101 1102.4375,248.1101 C1102.4375,246.282 1101.6094,245.4382 1100.4688,244.6414 L1099.4531,243.9226 C1098.3281,243.1101 1097.9063,242.8132 1097.9063,241.9539 C1097.9063,241.2664 1098.3906,240.8601 1098.9688,240.8601 C1099.7031,240.8601 1100.1875,241.2507 1100.8906,241.8914 L1102.2031,240.3132 C1101.2344,239.2976 1100.2188,238.7039 1098.9531,238.7039 C1096.8125,238.7039 1095.3594,240.2195 1095.3594,242.1414 C1095.3594,243.9382 1096.2813,244.8445 1097.375,245.5945 L1098.4688,246.3445 C1099.4063,246.9539 1099.8594,247.532 1099.8594,248.4695 C1099.8594,249.1414 1099.3906,249.5632 1098.6875,249.5632 C1097.9844,249.5632 1097.2344,249.0476 1096.5781,248.2195 L1095.0313,249.907 C1096.0625,251.0945 1097.3594,251.7351 1098.6875,251.7351 Z " fill="#000000"/><text fill="#000000" font-family="sans-serif" font-size="14" lengthAdjust="spacing" textLength="89" x="1112.5" y="251.136">RawSerializer</text><line style="stroke:#181818;stroke-width:0.5;" x1="1084.5" x2="1203.5" y1="261.032" y2="261.032"/></g><!--MD5=[6a9853690fb7cc1c9f962ee9d8586813]
class protobuf.Serializer--><g id="elem_protobuf.Serializer"><rect codeLine="51" fill="#F1F1F1" height="40" id="protobuf.Serializer" rx="2.5" ry="2.5" style="stroke:#181818;stroke-width:0.5;" width="93" x="955.5" y="229.032"/><ellipse cx="970.5" cy="245.032" fill="#7FFFD4" rx="11" ry="11" style="stroke:#181818;stroke-width:1.0;"/><path d="M970.6875,251.7351 C972.9844,251.7351 974.4375,250.1101 974.4375,248.1101 C974.4375,246.282 973.6094,245.4382 972.4688,244.6414 L971.4531,243.9226 C970.3281,243.1101 969.9063,242.8132 969.9063,241.9539 C969.9063,241.2664 970.3906,240.8601 970.9688,240.8601 C971.7031,240.8601 972.1875,241.2507 972.8906,241.8914 L974.2031,240.3132 C973.2344,239.2976 972.2188,238.7039 970.9531,238.7039 C968.8125,238.7039 967.3594,240.2195 967.3594,242.1414 C967.3594,243.9382 968.2813,244.8445 969.375,245.5945 L970.4688,246.3445 C971.4063,246.9539 971.8594,247.532 971.8594,248.4695 C971.8594,249.1414 971.3906,249.5632 970.6875,249.5632 C969.9844,249.5632 969.2344,249.0476 968.5781,248.2195 L967.0313,249.907 C968.0625,251.0945 969.3594,251.7351 970.6875,251.7351 Z " fill="#000000"/><text fill="#000000" font-family="sans-serif" font-size="14" lengthAdjust="spacing" textLength="61" x="984.5" y="251.136">Serializer</text><line style="stroke:#181818;stroke-width:0.5;" x1="956.5" x2="1047.5" y1="261.032" y2="261.032"/></g><!--MD5=[58c1777d29a78718fe566c9619a60e13]
class protobuf.bufferedMarshaller--><g id="elem_protobuf.bufferedMarshaller"><rect codeLine="59" fill="#F1F1F1" height="40" id="protobuf.bufferedMarshaller" rx="2.5" ry="2.5" style="stroke:#181818;stroke-width:0.5;" width="159" x="1239.5" y="229.032"/><ellipse cx="1254.5" cy="245.032" fill="#B4A7E5" rx="11" ry="11" style="stroke:#181818;stroke-width:1.0;"/><path d="M1250.8594,251.532 L1257.6406,251.532 L1257.6406,249.4539 L1255.4844,249.4539 L1255.4844,241.0164 L1257.6406,241.0164 L1257.6406,238.907 L1250.8594,238.907 L1250.8594,241.0164 L1252.9531,241.0164 L1252.9531,249.4539 L1250.8594,249.4539 L1250.8594,251.532 Z " fill="#000000"/><text fill="#000000" font-family="sans-serif" font-size="14" font-style="italic" lengthAdjust="spacing" textLength="127" x="1268.5" y="251.136">bufferedMarshaller</text><line style="stroke:#181818;stroke-width:0.5;" x1="1240.5" x2="1397.5" y1="261.032" y2="261.032"/></g><!--MD5=[2c2dad4e49fcdeac9daf4755da997654]
class protobuf.bufferedReverseMarshaller--><g id="elem_protobuf.bufferedReverseMarshaller"><rect codeLine="61" fill="#F1F1F1" height="40" id="protobuf.bufferedReverseMarshaller" rx="2.5" ry="2.5" style="stroke:#181818;stroke-width:0.5;" width="211" x="1433.5" y="229.032"/><ellipse cx="1448.5" cy="245.032" fill="#B4A7E5" rx="11" ry="11" style="stroke:#181818;stroke-width:1.0;"/><path d="M1444.8594,251.532 L1451.6406,251.532 L1451.6406,249.4539 L1449.4844,249.4539 L1449.4844,241.0164 L1451.6406,241.0164 L1451.6406,238.907 L1444.8594,238.907 L1444.8594,241.0164 L1446.9531,241.0164 L1446.9531,249.4539 L1444.8594,249.4539 L1444.8594,251.532 Z " fill="#000000"/><text fill="#000000" font-family="sans-serif" font-size="14" font-style="italic" lengthAdjust="spacing" textLength="179" x="1462.5" y="251.136">bufferedReverseMarshaller</text><line style="stroke:#181818;stroke-width:0.5;" x1="1434.5" x2="1643.5" y1="261.032" y2="261.032"/></g><!--MD5=[c3038a6351798dcad1f364fda506f89f]
class protobuf.errNotMarshalable--><g id="elem_protobuf.errNotMarshalable"><rect codeLine="63" fill="#F1F1F1" height="40" id="protobuf.errNotMarshalable" rx="2.5" ry="2.5" style="stroke:#181818;stroke-width:0.5;" width="154" x="1067" y="359.532"/><ellipse cx="1082" cy="375.532" fill="#7FFFD4" rx="11" ry="11" style="stroke:#181818;stroke-width:1.0;"/><path d="M1082.1875,382.2351 C1084.4844,382.2351 1085.9375,380.6101 1085.9375,378.6101 C1085.9375,376.782 1085.1094,375.9382 1083.9688,375.1414 L1082.9531,374.4226 C1081.8281,373.6101 1081.4063,373.3132 1081.4063,372.4539 C1081.4063,371.7664 1081.8906,371.3601 1082.4688,371.3601 C1083.2031,371.3601 1083.6875,371.7507 1084.3906,372.3914 L1085.7031,370.8132 C1084.7344,369.7976 1083.7188,369.2039 1082.4531,369.2039 C1080.3125,369.2039 1078.8594,370.7195 1078.8594,372.6414 C1078.8594,374.4382 1079.7813,375.3445 1080.875,376.0945 L1081.9688,376.8445 C1082.9063,377.4539 1083.3594,378.032 1083.3594,378.9695 C1083.3594,379.6414 1082.8906,380.0632 1082.1875,380.0632 C1081.4844,380.0632 1080.7344,379.5476 1080.0781,378.7195 L1078.5313,380.407 C1079.5625,381.5945 1080.8594,382.2351 1082.1875,382.2351 Z " fill="#000000"/><text fill="#000000" font-family="sans-serif" font-size="14" lengthAdjust="spacing" textLength="122" x="1096" y="381.636">errNotMarshalable</text><line style="stroke:#181818;stroke-width:0.5;" x1="1068" x2="1220" y1="391.532" y2="391.532"/></g><!--MD5=[6d350570b1821df90dbbe7a5afbf3ee6]
class protobuf.lengthDelimitedFramer--><g id="elem_protobuf.lengthDelimitedFramer"><rect codeLine="68" fill="#F1F1F1" height="40" id="protobuf.lengthDelimitedFramer" rx="2.5" ry="2.5" style="stroke:#181818;stroke-width:0.5;" width="187" x="1256.5" y="359.532"/><ellipse cx="1271.5" cy="375.532" fill="#7FFFD4" rx="11" ry="11" style="stroke:#181818;stroke-width:1.0;"/><path d="M1271.6875,382.2351 C1273.9844,382.2351 1275.4375,380.6101 1275.4375,378.6101 C1275.4375,376.782 1274.6094,375.9382 1273.4688,375.1414 L1272.4531,374.4226 C1271.3281,373.6101 1270.9063,373.3132 1270.9063,372.4539 C1270.9063,371.7664 1271.3906,371.3601 1271.9688,371.3601 C1272.7031,371.3601 1273.1875,371.7507 1273.8906,372.3914 L1275.2031,370.8132 C1274.2344,369.7976 1273.2188,369.2039 1271.9531,369.2039 C1269.8125,369.2039 1268.3594,370.7195 1268.3594,372.6414 C1268.3594,374.4382 1269.2813,375.3445 1270.375,376.0945 L1271.4688,376.8445 C1272.4063,377.4539 1272.8594,378.032 1272.8594,378.9695 C1272.8594,379.6414 1272.3906,380.0632 1271.6875,380.0632 C1270.9844,380.0632 1270.2344,379.5476 1269.5781,378.7195 L1268.0313,380.407 C1269.0625,381.5945 1270.3594,382.2351 1271.6875,382.2351 Z " fill="#000000"/><text fill="#000000" font-family="sans-serif" font-size="14" lengthAdjust="spacing" textLength="155" x="1285.5" y="381.636">lengthDelimitedFramer</text><line style="stroke:#181818;stroke-width:0.5;" x1="1257.5" x2="1442.5" y1="391.532" y2="391.532"/></g><!--MD5=[200e1df47e6606ca4b5caa76e4a35bcf]
class serializer.CodecFactory--><g id="elem_serializer.CodecFactory"><rect codeLine="92" fill="#F1F1F1" height="40" id="serializer.CodecFactory" rx="2.5" ry="2.5" style="stroke:#181818;stroke-width:0.5;" width="121" x="370.5" y="480.032"/><ellipse cx="385.5" cy="496.032" fill="#7FFFD4" rx="11" ry="11" style="stroke:#181818;stroke-width:1.0;"/><path d="M385.6875,502.7351 C387.9844,502.7351 389.4375,501.1101 389.4375,499.1101 C389.4375,497.282 388.6094,496.4382 387.4688,495.6414 L386.4531,494.9226 C385.3281,494.1101 384.9063,493.8132 384.9063,492.9539 C384.9063,492.2664 385.3906,491.8601 385.9688,491.8601 C386.7031,491.8601 387.1875,492.2507 387.8906,492.8914 L389.2031,491.3132 C388.2344,490.2976 387.2188,489.7039 385.9531,489.7039 C383.8125,489.7039 382.3594,491.2195 382.3594,493.1414 C382.3594,494.9382 383.2813,495.8445 384.375,496.5945 L385.4688,497.3445 C386.4063,497.9539 386.8594,498.532 386.8594,499.4695 C386.8594,500.1414 386.3906,500.5632 385.6875,500.5632 C384.9844,500.5632 384.2344,500.0476 383.5781,499.2195 L382.0313,500.907 C383.0625,502.0945 384.3594,502.7351 385.6875,502.7351 Z " fill="#000000"/><text fill="#000000" font-family="sans-serif" font-size="14" lengthAdjust="spacing" textLength="89" x="399.5" y="502.136">CodecFactory</text><line style="stroke:#181818;stroke-width:0.5;" x1="371.5" x2="490.5" y1="512.032" y2="512.032"/></g><!--MD5=[aed0b721fdd4914e23c15597fe6d212c]
class serializer.CodecFactoryOptions--><g id="elem_serializer.CodecFactoryOptions"><rect codeLine="103" fill="#F1F1F1" height="80.5438" id="serializer.CodecFactoryOptions" rx="2.5" ry="2.5" style="stroke:#181818;stroke-width:0.5;" width="173" x="615.5" y="459.532"/><ellipse cx="630.5" cy="475.532" fill="#7FFFD4" rx="11" ry="11" style="stroke:#181818;stroke-width:1.0;"/><path d="M630.6875,482.2351 C632.9844,482.2351 634.4375,480.6101 634.4375,478.6101 C634.4375,476.782 633.6094,475.9382 632.4688,475.1414 L631.4531,474.4226 C630.3281,473.6101 629.9063,473.3132 629.9063,472.4539 C629.9063,471.7664 630.3906,471.3601 630.9688,471.3601 C631.7031,471.3601 632.1875,471.7507 632.8906,472.3914 L634.2031,470.8132 C633.2344,469.7976 632.2188,469.2039 630.9531,469.2039 C628.8125,469.2039 627.3594,470.7195 627.3594,472.6414 C627.3594,474.4382 628.2813,475.3445 629.375,476.0945 L630.4688,476.8445 C631.4063,477.4539 631.8594,478.032 631.8594,478.9695 C631.8594,479.6414 631.3906,480.0632 630.6875,480.0632 C629.9844,480.0632 629.2344,479.5476 628.5781,478.7195 L627.0313,480.407 C628.0625,481.5945 629.3594,482.2351 630.6875,482.2351 Z " fill="#000000"/><text fill="#000000" font-family="sans-serif" font-size="14" lengthAdjust="spacing" textLength="141" x="644.5" y="481.636">CodecFactoryOptions</text><line style="stroke:#181818;stroke-width:0.5;" x1="616.5" x2="787.5" y1="491.532" y2="491.532"/><ellipse cx="626.5" cy="507.1679" fill="none" rx="3" ry="3" style="stroke:#038048;stroke-width:1.0;"/><text fill="#000000" font-family="sans-serif" font-size="14" lengthAdjust="spacing" textLength="66" x="635.5" y="511.7719">Strict bool</text><ellipse cx="626.5" cy="527.4398" fill="none" rx="3" ry="3" style="stroke:#038048;stroke-width:1.0;"/><text fill="#000000" font-family="sans-serif" font-size="14" lengthAdjust="spacing" textLength="71" x="635.5" y="532.0438">Pretty bool</text></g><!--MD5=[a314678a51c6302659f9545e5a331070]
class serializer.WithoutConversionCodecFactory--><g id="elem_serializer.WithoutConversionCodecFactory"><rect codeLine="108" fill="#F1F1F1" height="40" id="serializer.WithoutConversionCodecFactory" rx="2.5" ry="2.5" style="stroke:#181818;stroke-width:0.5;" width="247" x="307.5" y="712.032"/><ellipse cx="322.5" cy="728.032" fill="#7FFFD4" rx="11" ry="11" style="stroke:#181818;stroke-width:1.0;"/><path d="M322.6875,734.7351 C324.9844,734.7351 326.4375,733.1101 326.4375,731.1101 C326.4375,729.282 325.6094,728.4382 324.4688,727.6414 L323.4531,726.9226 C322.3281,726.1101 321.9063,725.8132 321.9063,724.9539 C321.9063,724.2664 322.3906,723.8601 322.9688,723.8601 C323.7031,723.8601 324.1875,724.2507 324.8906,724.8914 L326.2031,723.3132 C325.2344,722.2976 324.2188,721.7039 322.9531,721.7039 C320.8125,721.7039 319.3594,723.2195 319.3594,725.1414 C319.3594,726.9382 320.2813,727.8445 321.375,728.5945 L322.4688,729.3445 C323.4063,729.9539 323.8594,730.532 323.8594,731.4695 C323.8594,732.1414 323.3906,732.5632 322.6875,732.5632 C321.9844,732.5632 321.2344,732.0476 320.5781,731.2195 L319.0313,732.907 C320.0625,734.0945 321.3594,734.7351 322.6875,734.7351 Z " fill="#000000"/><text fill="#000000" font-family="sans-serif" font-size="14" lengthAdjust="spacing" textLength="215" x="336.5" y="734.136">WithoutConversionCodecFactory</text><line style="stroke:#181818;stroke-width:0.5;" x1="308.5" x2="553.5" y1="744.032" y2="744.032"/></g><!--MD5=[358dcc90d0b531ad57439eabebe0acc2]
class serializer.negotiatedSerializerWrapper--><g id="elem_serializer.negotiatedSerializerWrapper"><rect codeLine="113" fill="#F1F1F1" height="40" id="serializer.negotiatedSerializerWrapper" rx="2.5" ry="2.5" style="stroke:#181818;stroke-width:0.5;" width="221" x="823.5" y="480.032"/><ellipse cx="838.5" cy="496.032" fill="#7FFFD4" rx="11" ry="11" style="stroke:#181818;stroke-width:1.0;"/><path d="M838.6875,502.7351 C840.9844,502.7351 842.4375,501.1101 842.4375,499.1101 C842.4375,497.282 841.6094,496.4382 840.4688,495.6414 L839.4531,494.9226 C838.3281,494.1101 837.9063,493.8132 837.9063,492.9539 C837.9063,492.2664 838.3906,491.8601 838.9688,491.8601 C839.7031,491.8601 840.1875,492.2507 840.8906,492.8914 L842.2031,491.3132 C841.2344,490.2976 840.2188,489.7039 838.9531,489.7039 C836.8125,489.7039 835.3594,491.2195 835.3594,493.1414 C835.3594,494.9382 836.2813,495.8445 837.375,496.5945 L838.4688,497.3445 C839.4063,497.9539 839.8594,498.532 839.8594,499.4695 C839.8594,500.1414 839.3906,500.5632 838.6875,500.5632 C837.9844,500.5632 837.2344,500.0476 836.5781,499.2195 L835.0313,500.907 C836.0625,502.0945 837.3594,502.7351 838.6875,502.7351 Z " fill="#000000"/><text fill="#000000" font-family="sans-serif" font-size="14" lengthAdjust="spacing" textLength="189" x="852.5" y="502.136">negotiatedSerializerWrapper</text><line style="stroke:#181818;stroke-width:0.5;" x1="824.5" x2="1043.5" y1="512.032" y2="512.032"/></g><!--MD5=[5d1d87cbd77bc6904f35497326f6b1f0]
class serializer.CodecFactoryOptionsMutator--><g id="elem_serializer.CodecFactoryOptionsMutator"><rect codeLine="119" fill="#F1F1F1" height="40" id="serializer.CodecFactoryOptionsMutator" rx="2.5" ry="2.5" style="stroke:#181818;stroke-width:0.5;" width="224" x="590" y="712.032"/><ellipse cx="605" cy="728.032" fill="#FF7700" rx="11" ry="11" style="stroke:#181818;stroke-width:1.0;"/><path d="M603.7344,735.032 L606.2813,735.032 L606.2813,724.5164 L608.9063,724.5164 L608.9063,722.407 L601.0938,722.407 L601.0938,724.5164 L603.7344,724.5164 L603.7344,735.032 Z " fill="#000000"/><text fill="#000000" font-family="sans-serif" font-size="14" lengthAdjust="spacing" textLength="192" x="619" y="734.136">CodecFactoryOptionsMutator</text><line style="stroke:#181818;stroke-width:0.5;" x1="591" x2="813" y1="744.032" y2="744.032"/></g><!--MD5=[aabec4c5f253e96c6e88de985efb75ae]
class serializer.serializerType--><g id="elem_serializer.serializerType"><rect codeLine="121" fill="#F1F1F1" height="262.991" id="serializer.serializerType" rx="2.5" ry="2.5" style="stroke:#181818;stroke-width:0.5;" width="261" x="849.5" y="600.532"/><ellipse cx="929.75" cy="616.532" fill="#7FFFD4" rx="11" ry="11" style="stroke:#181818;stroke-width:1.0;"/><path d="M929.9375,623.2351 C932.2344,623.2351 933.6875,621.6101 933.6875,619.6101 C933.6875,617.782 932.8594,616.9382 931.7188,616.1414 L930.7031,615.4226 C929.5781,614.6101 929.1563,614.3132 929.1563,613.4539 C929.1563,612.7664 929.6406,612.3601 930.2188,612.3601 C930.9531,612.3601 931.4375,612.7507 932.1406,613.3914 L933.4531,611.8132 C932.4844,610.7976 931.4688,610.2039 930.2031,610.2039 C928.0625,610.2039 926.6094,611.7195 926.6094,613.6414 C926.6094,615.4382 927.5313,616.3445 928.625,617.0945 L929.7188,617.8445 C930.6563,618.4539 931.1094,619.032 931.1094,619.9695 C931.1094,620.6414 930.6406,621.0632 929.9375,621.0632 C929.2344,621.0632 928.4844,620.5476 927.8281,619.7195 L926.2813,621.407 C927.3125,622.5945 928.6094,623.2351 929.9375,623.2351 Z " fill="#000000"/><text fill="#000000" font-family="sans-serif" font-size="14" lengthAdjust="spacing" textLength="92" x="950.25" y="622.636">serializerType</text><line style="stroke:#181818;stroke-width:0.5;" x1="850.5" x2="1109.5" y1="632.532" y2="632.532"/><ellipse cx="860.5" cy="648.1679" fill="none" rx="3" ry="3" style="stroke:#038048;stroke-width:1.0;"/><text fill="#000000" font-family="sans-serif" font-size="14" lengthAdjust="spacing" textLength="188" x="869.5" y="652.7719">AcceptContentTypes []string</text><ellipse cx="860.5" cy="668.4398" fill="none" rx="3" ry="3" style="stroke:#038048;stroke-width:1.0;"/><text fill="#000000" font-family="sans-serif" font-size="14" lengthAdjust="spacing" textLength="126" x="869.5" y="673.0438">ContentType string</text><ellipse cx="860.5" cy="688.7118" fill="none" rx="3" ry="3" style="stroke:#038048;stroke-width:1.0;"/><text fill="#000000" font-family="sans-serif" font-size="14" lengthAdjust="spacing" textLength="147" x="869.5" y="693.3157">FileExtensions []string</text><ellipse cx="860.5" cy="708.9837" fill="none" rx="3" ry="3" style="stroke:#038048;stroke-width:1.0;"/><text fill="#000000" font-family="sans-serif" font-size="14" lengthAdjust="spacing" textLength="132" x="869.5" y="713.5876">EncodesAsText bool</text><ellipse cx="860.5" cy="729.2556" fill="none" rx="3" ry="3" style="stroke:#038048;stroke-width:1.0;"/><text fill="#000000" font-family="sans-serif" font-size="14" lengthAdjust="spacing" textLength="182" x="869.5" y="733.8596">Serializer runtime.Serializer</text><ellipse cx="860.5" cy="749.5275" fill="none" rx="3" ry="3" style="stroke:#038048;stroke-width:1.0;"/><text fill="#000000" font-family="sans-serif" font-size="14" lengthAdjust="spacing" textLength="221" x="869.5" y="754.1315">PrettySerializer runtime.Serializer</text><ellipse cx="860.5" cy="769.7994" fill="none" rx="3" ry="3" style="stroke:#038048;stroke-width:1.0;"/><text fill="#000000" font-family="sans-serif" font-size="14" lengthAdjust="spacing" textLength="216" x="869.5" y="774.4034">StrictSerializer runtime.Serializer</text><ellipse cx="860.5" cy="790.0713" fill="none" rx="3" ry="3" style="stroke:#038048;stroke-width:1.0;"/><text fill="#000000" font-family="sans-serif" font-size="14" lengthAdjust="spacing" textLength="235" x="869.5" y="794.6753">AcceptStreamContentTypes []string</text><ellipse cx="860.5" cy="810.3432" fill="none" rx="3" ry="3" style="stroke:#038048;stroke-width:1.0;"/><text fill="#000000" font-family="sans-serif" font-size="14" lengthAdjust="spacing" textLength="173" x="869.5" y="814.9472">StreamContentType string</text><ellipse cx="860.5" cy="830.6151" fill="none" rx="3" ry="3" style="stroke:#038048;stroke-width:1.0;"/><text fill="#000000" font-family="sans-serif" font-size="14" lengthAdjust="spacing" textLength="154" x="869.5" y="835.2191">Framer runtime.Framer</text><ellipse cx="860.5" cy="850.8871" fill="none" rx="3" ry="3" style="stroke:#038048;stroke-width:1.0;"/><text fill="#000000" font-family="sans-serif" font-size="14" lengthAdjust="spacing" textLength="229" x="869.5" y="855.491">StreamSerializer runtime.Serializer</text></g><!--MD5=[f232f7de755809dcddfba4c35bfd500a]
class streaming.Decoder--><g id="elem_streaming.Decoder"><rect codeLine="140" fill="#F1F1F1" height="40" id="streaming.Decoder" rx="2.5" ry="2.5" style="stroke:#181818;stroke-width:0.5;" width="87" x="2008.5" y="68.032"/><ellipse cx="2023.5" cy="84.032" fill="#B4A7E5" rx="11" ry="11" style="stroke:#181818;stroke-width:1.0;"/><path d="M2019.8594,90.532 L2026.6406,90.532 L2026.6406,88.4539 L2024.4844,88.4539 L2024.4844,80.0164 L2026.6406,80.0164 L2026.6406,77.907 L2019.8594,77.907 L2019.8594,80.0164 L2021.9531,80.0164 L2021.9531,88.4539 L2019.8594,88.4539 L2019.8594,90.532 Z " fill="#000000"/><text fill="#000000" font-family="sans-serif" font-size="14" font-style="italic" lengthAdjust="spacing" textLength="55" x="2037.5" y="90.136">Decoder</text><line style="stroke:#181818;stroke-width:0.5;" x1="2009.5" x2="2094.5" y1="100.032" y2="100.032"/></g><!--MD5=[e75739c8056f1738e8d222e1b138d708]
class streaming.Encoder--><g id="elem_streaming.Encoder"><rect codeLine="145" fill="#F1F1F1" height="40" id="streaming.Encoder" rx="2.5" ry="2.5" style="stroke:#181818;stroke-width:0.5;" width="86" x="1827" y="68.032"/><ellipse cx="1842" cy="84.032" fill="#B4A7E5" rx="11" ry="11" style="stroke:#181818;stroke-width:1.0;"/><path d="M1838.3594,90.532 L1845.1406,90.532 L1845.1406,88.4539 L1842.9844,88.4539 L1842.9844,80.0164 L1845.1406,80.0164 L1845.1406,77.907 L1838.3594,77.907 L1838.3594,80.0164 L1840.4531,80.0164 L1840.4531,88.4539 L1838.3594,88.4539 L1838.3594,90.532 Z " fill="#000000"/><text fill="#000000" font-family="sans-serif" font-size="14" font-style="italic" lengthAdjust="spacing" textLength="54" x="1856" y="90.136">Encoder</text><line style="stroke:#181818;stroke-width:0.5;" x1="1828" x2="1912" y1="100.032" y2="100.032"/></g><!--MD5=[2951a01c301a0f82faa4973d675a19fd]
class streaming.Serializer--><g id="elem_streaming.Serializer"><rect codeLine="149" fill="#F1F1F1" height="40" id="streaming.Serializer" rx="2.5" ry="2.5" style="stroke:#181818;stroke-width:0.5;" width="93" x="1689.5" y="68.032"/><ellipse cx="1704.5" cy="84.032" fill="#B4A7E5" rx="11" ry="11" style="stroke:#181818;stroke-width:1.0;"/><path d="M1700.8594,90.532 L1707.6406,90.532 L1707.6406,88.4539 L1705.4844,88.4539 L1705.4844,80.0164 L1707.6406,80.0164 L1707.6406,77.907 L1700.8594,77.907 L1700.8594,80.0164 L1702.9531,80.0164 L1702.9531,88.4539 L1700.8594,88.4539 L1700.8594,90.532 Z " fill="#000000"/><text fill="#000000" font-family="sans-serif" font-size="14" font-style="italic" lengthAdjust="spacing" textLength="61" x="1718.5" y="90.136">Serializer</text><line style="stroke:#181818;stroke-width:0.5;" x1="1690.5" x2="1781.5" y1="100.032" y2="100.032"/></g><!--MD5=[416c73802fabd752d9f42bbc489ab23a]
class streaming.decoder--><g id="elem_streaming.decoder"><rect codeLine="154" fill="#F1F1F1" height="40" id="streaming.decoder" rx="2.5" ry="2.5" style="stroke:#181818;stroke-width:0.5;" width="86" x="2010" y="229.032"/><ellipse cx="2025" cy="245.032" fill="#7FFFD4" rx="11" ry="11" style="stroke:#181818;stroke-width:1.0;"/><path d="M2025.1875,251.7351 C2027.4844,251.7351 2028.9375,250.1101 2028.9375,248.1101 C2028.9375,246.282 2028.1094,245.4382 2026.9688,244.6414 L2025.9531,243.9226 C2024.8281,243.1101 2024.4063,242.8132 2024.4063,241.9539 C2024.4063,241.2664 2024.8906,240.8601 2025.4688,240.8601 C2026.2031,240.8601 2026.6875,241.2507 2027.3906,241.8914 L2028.7031,240.3132 C2027.7344,239.2976 2026.7188,238.7039 2025.4531,238.7039 C2023.3125,238.7039 2021.8594,240.2195 2021.8594,242.1414 C2021.8594,243.9382 2022.7813,244.8445 2023.875,245.5945 L2024.9688,246.3445 C2025.9063,246.9539 2026.3594,247.532 2026.3594,248.4695 C2026.3594,249.1414 2025.8906,249.5632 2025.1875,249.5632 C2024.4844,249.5632 2023.7344,249.0476 2023.0781,248.2195 L2021.5313,249.907 C2022.5625,251.0945 2023.8594,251.7351 2025.1875,251.7351 Z " fill="#000000"/><text fill="#000000" font-family="sans-serif" font-size="14" lengthAdjust="spacing" textLength="54" x="2039" y="251.136">decoder</text><line style="stroke:#181818;stroke-width:0.5;" x1="2011" x2="2095" y1="261.032" y2="261.032"/></g><!--MD5=[e478226450d37f35d27de8dc94e12f25]
class streaming.encoder--><g id="elem_streaming.encoder"><rect codeLine="159" fill="#F1F1F1" height="40" id="streaming.encoder" rx="2.5" ry="2.5" style="stroke:#181818;stroke-width:0.5;" width="86" x="1680" y="229.032"/><ellipse cx="1695" cy="245.032" fill="#7FFFD4" rx="11" ry="11" style="stroke:#181818;stroke-width:1.0;"/><path d="M1695.1875,251.7351 C1697.4844,251.7351 1698.9375,250.1101 1698.9375,248.1101 C1698.9375,246.282 1698.1094,245.4382 1696.9688,244.6414 L1695.9531,243.9226 C1694.8281,243.1101 1694.4063,242.8132 1694.4063,241.9539 C1694.4063,241.2664 1694.8906,240.8601 1695.4688,240.8601 C1696.2031,240.8601 1696.6875,241.2507 1697.3906,241.8914 L1698.7031,240.3132 C1697.7344,239.2976 1696.7188,238.7039 1695.4531,238.7039 C1693.3125,238.7039 1691.8594,240.2195 1691.8594,242.1414 C1691.8594,243.9382 1692.7813,244.8445 1693.875,245.5945 L1694.9688,246.3445 C1695.9063,246.9539 1696.3594,247.532 1696.3594,248.4695 C1696.3594,249.1414 1695.8906,249.5632 1695.1875,249.5632 C1694.4844,249.5632 1693.7344,249.0476 1693.0781,248.2195 L1691.5313,249.907 C1692.5625,251.0945 1693.8594,251.7351 1695.1875,251.7351 Z " fill="#000000"/><text fill="#000000" font-family="sans-serif" font-size="14" lengthAdjust="spacing" textLength="54" x="1709" y="251.136">encoder</text><line style="stroke:#181818;stroke-width:0.5;" x1="1681" x2="1765" y1="261.032" y2="261.032"/></g><!--MD5=[67752a6c0ea20adde76cb3fdb36c3e5a]
class streaming.encoderWithAllocator--><g id="elem_streaming.encoderWithAllocator"><rect codeLine="163" fill="#F1F1F1" height="40" id="streaming.encoderWithAllocator" rx="2.5" ry="2.5" style="stroke:#181818;stroke-width:0.5;" width="174" x="1801" y="229.032"/><ellipse cx="1816" cy="245.032" fill="#7FFFD4" rx="11" ry="11" style="stroke:#181818;stroke-width:1.0;"/><path d="M1816.1875,251.7351 C1818.4844,251.7351 1819.9375,250.1101 1819.9375,248.1101 C1819.9375,246.282 1819.1094,245.4382 1817.9688,244.6414 L1816.9531,243.9226 C1815.8281,243.1101 1815.4063,242.8132 1815.4063,241.9539 C1815.4063,241.2664 1815.8906,240.8601 1816.4688,240.8601 C1817.2031,240.8601 1817.6875,241.2507 1818.3906,241.8914 L1819.7031,240.3132 C1818.7344,239.2976 1817.7188,238.7039 1816.4531,238.7039 C1814.3125,238.7039 1812.8594,240.2195 1812.8594,242.1414 C1812.8594,243.9382 1813.7813,244.8445 1814.875,245.5945 L1815.9688,246.3445 C1816.9063,246.9539 1817.3594,247.532 1817.3594,248.4695 C1817.3594,249.1414 1816.8906,249.5632 1816.1875,249.5632 C1815.4844,249.5632 1814.7344,249.0476 1814.0781,248.2195 L1812.5313,249.907 C1813.5625,251.0945 1814.8594,251.7351 1816.1875,251.7351 Z " fill="#000000"/><text fill="#000000" font-family="sans-serif" font-size="14" lengthAdjust="spacing" textLength="142" x="1830" y="251.136">encoderWithAllocator</text><line style="stroke:#181818;stroke-width:0.5;" x1="1802" x2="1974" y1="261.032" y2="261.032"/></g><!--MD5=[d71be67be53284a17739728d599bed85]
class versioning.codec--><g id="elem_versioning.codec"><rect codeLine="174" fill="#F1F1F1" height="40" id="versioning.codec" rx="2.5" ry="2.5" style="stroke:#181818;stroke-width:0.5;" width="71" x="2300.5" y="68.032"/><ellipse cx="2315.5" cy="84.032" fill="#7FFFD4" rx="11" ry="11" style="stroke:#181818;stroke-width:1.0;"/><path d="M2315.6875,90.7351 C2317.9844,90.7351 2319.4375,89.1101 2319.4375,87.1101 C2319.4375,85.282 2318.6094,84.4382 2317.4688,83.6414 L2316.4531,82.9226 C2315.3281,82.1101 2314.9063,81.8132 2314.9063,80.9539 C2314.9063,80.2664 2315.3906,79.8601 2315.9688,79.8601 C2316.7031,79.8601 2317.1875,80.2507 2317.8906,80.8914 L2319.2031,79.3132 C2318.2344,78.2976 2317.2188,77.7039 2315.9531,77.7039 C2313.8125,77.7039 2312.3594,79.2195 2312.3594,81.1414 C2312.3594,82.9382 2313.2813,83.8445 2314.375,84.5945 L2315.4688,85.3445 C2316.4063,85.9539 2316.8594,86.532 2316.8594,87.4695 C2316.8594,88.1414 2316.3906,88.5632 2315.6875,88.5632 C2314.9844,88.5632 2314.2344,88.0476 2313.5781,87.2195 L2312.0313,88.907 C2313.0625,90.0945 2314.3594,90.7351 2315.6875,90.7351 Z " fill="#000000"/><text fill="#000000" font-family="sans-serif" font-size="14" lengthAdjust="spacing" textLength="39" x="2329.5" y="90.136">codec</text><line style="stroke:#181818;stroke-width:0.5;" x1="2301.5" x2="2370.5" y1="100.032" y2="100.032"/></g><!--MD5=[fcb34a0c276a3321947f77f4c73eaec8]
class versioning.codecIdentifier--><g id="elem_versioning.codecIdentifier"><rect codeLine="181" fill="#F1F1F1" height="100.8157" id="versioning.codecIdentifier" rx="2.5" ry="2.5" style="stroke:#181818;stroke-width:0.5;" width="134" x="2131" y="37.532"/><ellipse cx="2146.9" cy="53.532" fill="#7FFFD4" rx="11" ry="11" style="stroke:#181818;stroke-width:1.0;"/><path d="M2147.0875,60.2351 C2149.3844,60.2351 2150.8375,58.6101 2150.8375,56.6101 C2150.8375,54.782 2150.0094,53.9382 2148.8688,53.1414 L2147.8531,52.4226 C2146.7281,51.6101 2146.3063,51.3132 2146.3063,50.4539 C2146.3063,49.7664 2146.7906,49.3601 2147.3688,49.3601 C2148.1031,49.3601 2148.5875,49.7507 2149.2906,50.3914 L2150.6031,48.8132 C2149.6344,47.7976 2148.6188,47.2039 2147.3531,47.2039 C2145.2125,47.2039 2143.7594,48.7195 2143.7594,50.6414 C2143.7594,52.4382 2144.6813,53.3445 2145.775,54.0945 L2146.8688,54.8445 C2147.8063,55.4539 2148.2594,56.032 2148.2594,56.9695 C2148.2594,57.6414 2147.7906,58.0632 2147.0875,58.0632 C2146.3844,58.0632 2145.6344,57.5476 2144.9781,56.7195 L2143.4313,58.407 C2144.4625,59.5945 2145.7594,60.2351 2147.0875,60.2351 Z " fill="#000000"/><text fill="#000000" font-family="sans-serif" font-size="14" lengthAdjust="spacing" textLength="100" x="2161.1" y="59.636">codecIdentifier</text><line style="stroke:#181818;stroke-width:0.5;" x1="2132" x2="2264" y1="69.532" y2="69.532"/><ellipse cx="2142" cy="85.1679" fill="none" rx="3" ry="3" style="stroke:#038048;stroke-width:1.0;"/><text fill="#000000" font-family="sans-serif" font-size="14" lengthAdjust="spacing" textLength="108" x="2151" y="89.7719">EncodeGV string</text><ellipse cx="2142" cy="105.4398" fill="none" rx="3" ry="3" style="stroke:#038048;stroke-width:1.0;"/><text fill="#000000" font-family="sans-serif" font-size="14" lengthAdjust="spacing" textLength="95" x="2151" y="110.0438">Encoder string</text><ellipse cx="2142" cy="125.7118" fill="none" rx="3" ry="3" style="stroke:#038048;stroke-width:1.0;"/><text fill="#000000" font-family="sans-serif" font-size="14" lengthAdjust="spacing" textLength="80" x="2151" y="130.3157">Name string</text></g><!--MD5=[4be03f380afda264dc31a18969e5b993]
class yaml.SimpleMetaFactory--><g id="elem_yaml.SimpleMetaFactory"><rect codeLine="191" fill="#F1F1F1" height="40" id="yaml.SimpleMetaFactory" rx="2.5" ry="2.5" style="stroke:#181818;stroke-width:0.5;" width="158" x="175" y="359.532"/><ellipse cx="190" cy="375.532" fill="#7FFFD4" rx="11" ry="11" style="stroke:#181818;stroke-width:1.0;"/><path d="M190.1875,382.2351 C192.4844,382.2351 193.9375,380.6101 193.9375,378.6101 C193.9375,376.782 193.1094,375.9382 191.9688,375.1414 L190.9531,374.4226 C189.8281,373.6101 189.4063,373.3132 189.4063,372.4539 C189.4063,371.7664 189.8906,371.3601 190.4688,371.3601 C191.2031,371.3601 191.6875,371.7507 192.3906,372.3914 L193.7031,370.8132 C192.7344,369.7976 191.7188,369.2039 190.4531,369.2039 C188.3125,369.2039 186.8594,370.7195 186.8594,372.6414 C186.8594,374.4382 187.7813,375.3445 188.875,376.0945 L189.9688,376.8445 C190.9063,377.4539 191.3594,378.032 191.3594,378.9695 C191.3594,379.6414 190.8906,380.0632 190.1875,380.0632 C189.4844,380.0632 188.7344,379.5476 188.0781,378.7195 L186.5313,380.407 C187.5625,381.5945 188.8594,382.2351 190.1875,382.2351 Z " fill="#000000"/><text fill="#000000" font-family="sans-serif" font-size="14" lengthAdjust="spacing" textLength="126" x="204" y="381.636">SimpleMetaFactory</text><line style="stroke:#181818;stroke-width:0.5;" x1="176" x2="332" y1="391.532" y2="391.532"/></g><!--MD5=[efd62a202cb13038a307c3daeb340550]
class yaml.yamlSerializer--><g id="elem_yaml.yamlSerializer"><rect codeLine="195" fill="#F1F1F1" height="40" id="yaml.yamlSerializer" rx="2.5" ry="2.5" style="stroke:#181818;stroke-width:0.5;" width="125" x="14.5" y="359.532"/><ellipse cx="29.5" cy="375.532" fill="#7FFFD4" rx="11" ry="11" style="stroke:#181818;stroke-width:1.0;"/><path d="M29.6875,382.2351 C31.9844,382.2351 33.4375,380.6101 33.4375,378.6101 C33.4375,376.782 32.6094,375.9382 31.4688,375.1414 L30.4531,374.4226 C29.3281,373.6101 28.9063,373.3132 28.9063,372.4539 C28.9063,371.7664 29.3906,371.3601 29.9688,371.3601 C30.7031,371.3601 31.1875,371.7507 31.8906,372.3914 L33.2031,370.8132 C32.2344,369.7976 31.2188,369.2039 29.9531,369.2039 C27.8125,369.2039 26.3594,370.7195 26.3594,372.6414 C26.3594,374.4382 27.2813,375.3445 28.375,376.0945 L29.4688,376.8445 C30.4063,377.4539 30.8594,378.032 30.8594,378.9695 C30.8594,379.6414 30.3906,380.0632 29.6875,380.0632 C28.9844,380.0632 28.2344,379.5476 27.5781,378.7195 L26.0313,380.407 C27.0625,381.5945 28.3594,382.2351 29.6875,382.2351 Z " fill="#000000"/><text fill="#000000" font-family="sans-serif" font-size="14" lengthAdjust="spacing" textLength="93" x="43.5" y="381.636">yamlSerializer</text><line style="stroke:#181818;stroke-width:0.5;" x1="15.5" x2="138.5" y1="391.532" y2="391.532"/></g><!--MD5=[a5598ad625871a36dbb38b95807c9a03]
class runtime.Serializer--><g id="elem_runtime.Serializer"><rect fill="#F1F1F1" height="40" id="runtime.Serializer" rx="2.5" ry="2.5" style="stroke:#181818;stroke-width:0.5;" width="93" x="30.5" y="229.032"/><ellipse cx="45.5" cy="245.032" fill="#ADD1B2" rx="11" ry="11" style="stroke:#181818;stroke-width:1.0;"/><path d="M45.7344,251.7351 C46.8906,251.7351 47.9844,251.2507 48.8125,250.2195 L47.3906,248.7039 C47,249.2507 46.5313,249.5632 45.9688,249.5632 C44.7813,249.5632 43.7656,248.4226 43.7656,245.1882 C43.7656,242.032 44.8281,240.8601 45.8594,240.8601 C46.4531,240.8601 46.8281,241.157 47.25,241.657 L48.6719,240.0945 C48,239.3445 47.0313,238.7039 45.75,238.7039 C43.3281,238.7039 41.1875,240.6726 41.1875,245.2976 C41.1875,249.9382 43.3281,251.7351 45.7344,251.7351 Z " fill="#000000"/><text fill="#000000" font-family="sans-serif" font-size="14" lengthAdjust="spacing" textLength="61" x="59.5" y="251.136">Serializer</text><line style="stroke:#181818;stroke-width:0.5;" x1="31.5" x2="122.5" y1="261.032" y2="261.032"/></g><!--MD5=[bc9ea6c6aeb8c51e30f2f9f5cedc0d44]
reverse link recognizer.RecognizingDecoder to json.Serializer--><g id="link_recognizer.RecognizingDecoder_json.Serializer"><path codeLine="40" d="M295.2753,120.1163 C313.1138,133.6463 333.0232,150.257 349,167.532 C366.5011,186.4551 382.4917,211.41 392.6649,228.6974 " fill="none" id="recognizer.RecognizingDecoder-backto-json.Serializer" style="stroke:#181818;stroke-width:1.0;"/><polygon fill="none" points="290.9803,125.647,279.003,108.1671,299.2667,114.3627,290.9803,125.647" style="stroke:#181818;stroke-width:1.0;"/></g><!--MD5=[b8d949800aa08eb26ae9ba9c59ec95c2]
reverse link json.MetaFactory to json.SimpleMetaFactory--><g id="link_json.MetaFactory_json.SimpleMetaFactory"><path codeLine="41" d="M533.7319,288.9943 C528.9283,312.2118 523.0792,340.4826 519.2088,359.1895 " fill="none" id="json.MetaFactory-backto-json.SimpleMetaFactory" style="stroke:#181818;stroke-width:1.0;"/><polygon fill="none" points="526.9334,287.3036,537.8404,269.1366,540.6431,290.1401,526.9334,287.3036" style="stroke:#181818;stroke-width:1.0;"/></g><!--MD5=[db2d2e72561dacacb27f19a7ddccafe7]
reverse link recognizer.RecognizingDecoder to protobuf.Serializer--><g id="link_recognizer.RecognizingDecoder_protobuf.Serializer"><path codeLine="75" d="M353.2746,90.4507 C520.3545,95.9102 839.2101,113.3067 937,167.532 C962.1662,181.4868 981.1455,209.5464 991.9151,228.8068 " fill="none" id="recognizer.RecognizingDecoder-backto-protobuf.Serializer" style="stroke:#181818;stroke-width:1.0;"/><polygon fill="none" points="352.961,97.4445,333.1876,89.8281,353.3949,83.4512,352.961,97.4445" style="stroke:#181818;stroke-width:1.0;"/></g><!--MD5=[7aea6fb7715c7a97224f5ee7dbdd0264]
reverse link recognizer.RecognizingDecoder to recognizer.decoder--><g id="link_recognizer.RecognizingDecoder_recognizer.decoder"><path codeLine="89" d="M249,128.5521 C249,160.5905 249,203.9529 249,228.9674 " fill="none" id="recognizer.RecognizingDecoder-backto-recognizer.decoder" style="stroke:#181818;stroke-width:1.0;"/><polygon fill="none" points="242.0001,128.0973,249,108.0972,256.0001,128.0972,242.0001,128.0973" style="stroke:#181818;stroke-width:1.0;"/></g><!--MD5=[751664a97818b8be65fa2df4ffa509f7]
reverse link serializer.CodecFactory to serializer.WithoutConversionCodecFactory--><g id="link_serializer.CodecFactory_serializer.WithoutConversionCodecFactory"><path codeLine="136" d="M431,533.4017 C431,582.2351 431,671.6985 431,711.7308 " fill="none" id="serializer.CodecFactory-backto-serializer.WithoutConversionCodecFactory" style="stroke:#181818;stroke-width:1.0;"/><polygon fill="#181818" points="431,520.2146,427,526.2146,431,532.2146,435,526.2146,431,520.2146" style="stroke:#181818;stroke-width:1.0;"/></g><!--MD5=[e70d0dd6833a61ac12976137aea307e1]
reverse link streaming.Decoder to streaming.decoder--><g id="link_streaming.Decoder_streaming.decoder"><path codeLine="169" d="M2052.2517,128.5521 C2052.4507,160.5905 2052.72,203.9529 2052.8754,228.9674 " fill="none" id="streaming.Decoder-backto-streaming.decoder" style="stroke:#181818;stroke-width:1.0;"/><polygon fill="none" points="2045.2491,128.1404,2052.1246,108.0972,2059.2488,128.0533,2045.2491,128.1404" style="stroke:#181818;stroke-width:1.0;"/></g><!--MD5=[ab222ded606fb41804ebd3917f7c88c9]
reverse link streaming.Encoder to streaming.encoder--><g id="link_streaming.Encoder_streaming.encoder"><path codeLine="170" d="M1830.4612,121.8229 C1815.3354,135.4458 1798.2963,151.6718 1784,167.532 C1766.2503,187.2234 1748.3583,211.8197 1736.5847,228.8125 " fill="none" id="streaming.Encoder-backto-streaming.encoder" style="stroke:#181818;stroke-width:1.0;"/><polygon fill="none" points="1826.2734,116.1828,1845.903,108.2029,1835.5341,126.6823,1826.2734,116.1828" style="stroke:#181818;stroke-width:1.0;"/></g><!--MD5=[4a174c9abacbd372e3beb84c1ecad751]
reverse link streaming.Encoder to streaming.encoderWithAllocator--><g id="link_streaming.Encoder_streaming.encoderWithAllocator"><path codeLine="171" d="M1874.4784,128.0885 C1878.0652,160.1712 1882.9466,203.8321 1885.7568,228.9674 " fill="none" id="streaming.Encoder-backto-streaming.encoderWithAllocator" style="stroke:#181818;stroke-width:1.0;"/><polygon fill="none" points="1867.5089,128.7512,1872.2433,108.0972,1881.4222,127.1956,1867.5089,128.7512" style="stroke:#181818;stroke-width:1.0;"/></g><!--MD5=[c7e698d12e3819518adf45012a21272f]
reverse link runtime.Serializer to yaml.yamlSerializer--><g id="link_runtime.Serializer_yaml.yamlSerializer"><path codeLine="200" d="M77,282.3651 C77,306.6118 77,338.6598 77,359.1895 " fill="none" id="runtime.Serializer-backto-yaml.yamlSerializer" style="stroke:#181818;stroke-width:1.0;"/><polygon fill="#181818" points="77,269.1366,73,275.1366,77,281.1366,81,275.1366,77,269.1366" style="stroke:#181818;stroke-width:1.0;"/></g><!--MD5=[8063748d03c462b6b72829d4e663ba67]
reverse link json.MetaFactory to yaml.SimpleMetaFactory--><g id="link_json.MetaFactory_yaml.SimpleMetaFactory"><path codeLine="202" d="M501.3633,280.7389 C490.9287,287.7411 479.4145,294.5482 468,299.532 C414.9397,322.6989 394.8238,307.1989 341,328.532 C320.6547,336.5959 299.4355,348.9442 283.0464,359.4704 " fill="none" id="json.MetaFactory-backto-yaml.SimpleMetaFactory" style="stroke:#181818;stroke-width:1.0;"/><polygon fill="none" points="497.3566,274.9985,517.6966,269.0582,505.5005,286.3861,497.3566,274.9985" style="stroke:#181818;stroke-width:1.0;"/></g><!--MD5=[95d1183ddf9a04e7793e12f4613c0f9b]
@startuml
namespace json {
    interface MetaFactory  {
        + Interpret(data []byte) (*schema.GroupVersionKind, error)

    }
    class Serializer << (S,Aquamarine) >> {
        + Decode(originalData []byte, gvk *schema.GroupVersionKind, into runtime.Object) (runtime.Object, *schema.GroupVersionKind, error)
        + Encode(obj runtime.Object, w io.Writer) error
        + IsStrict() bool
        + Identifier() runtime.Identifier
        + RecognizesData(data []byte) (bool, bool, error)

    }
    class SerializerOptions << (S,Aquamarine) >> {
        + Yaml bool
        + Pretty bool
        + Strict bool

    }
    class SimpleMetaFactory << (S,Aquamarine) >> {
        + Interpret(data []byte) (*schema.GroupVersionKind, error)

    }
    class jsonFramer << (S,Aquamarine) >> {
        + NewFrameWriter(w io.Writer) io.Writer
        + NewFrameReader(r io.ReadCloser) io.ReadCloser

    }
    class yamlFrameWriter << (S,Aquamarine) >> {
        + Write(data []byte) (int, error)

    }
    class yamlFramer << (S,Aquamarine) >> {
        + NewFrameWriter(w io.Writer) io.Writer
        + NewFrameReader(r io.ReadCloser) io.ReadCloser

    }
}

"recognizer.RecognizingDecoder" <|- - "json.Serializer"
"json.MetaFactory" <|- - "json.SimpleMetaFactory"

namespace protobuf {
    class RawSerializer << (S,Aquamarine) >> {
        + Decode(originalData []byte, gvk *schema.GroupVersionKind, into runtime.Object) (runtime.Object, *schema.GroupVersionKind, error)
        + Encode(obj runtime.Object, w io.Writer) error
        + EncodeWithAllocator(obj runtime.Object, w io.Writer, memAlloc runtime.MemoryAllocator) error
        + Identifier() runtime.Identifier

    }
    class Serializer << (S,Aquamarine) >> {
        + Decode(originalData []byte, gvk *schema.GroupVersionKind, into runtime.Object) (runtime.Object, *schema.GroupVersionKind, error)
        + EncodeWithAllocator(obj runtime.Object, w io.Writer, memAlloc runtime.MemoryAllocator) error
        + Encode(obj runtime.Object, w io.Writer) error
        + Identifier() runtime.Identifier
        + RecognizesData(data []byte) (bool, bool, error)

    }
    interface bufferedMarshaller  {
    }
    interface bufferedReverseMarshaller  {
    }
    class errNotMarshalable << (S,Aquamarine) >> {
        + Error() string
        + Status() v1.Status

    }
    class lengthDelimitedFramer << (S,Aquamarine) >> {
        + NewFrameWriter(w io.Writer) io.Writer
        + NewFrameReader(r io.ReadCloser) io.ReadCloser

    }
}

"recognizer.RecognizingDecoder" <|- - "protobuf.Serializer"

namespace recognizer {
    interface RecognizingDecoder  {
        + RecognizesData(peek []byte) (bool, bool, error)

    }
    class decoder << (S,Aquamarine) >> {
        + RecognizesData(data []byte) (bool, bool, error)
        + Decode(data []byte, gvk *schema.GroupVersionKind, into runtime.Object) (runtime.Object, *schema.GroupVersionKind, error)

    }
}

"recognizer.RecognizingDecoder" <|- - "recognizer.decoder"

namespace serializer {
    class CodecFactory << (S,Aquamarine) >> {
        + WithoutConversion() runtime.NegotiatedSerializer
        + SupportedMediaTypes() []runtime.SerializerInfo
        + LegacyCodec(version ...schema.GroupVersion) runtime.Codec
        + UniversalDeserializer() runtime.Decoder
        + UniversalDecoder(versions ...schema.GroupVersion) runtime.Decoder
        + CodecForVersions(encoder runtime.Encoder, decoder runtime.Decoder, encode runtime.GroupVersioner, decode runtime.GroupVersioner) runtime.Codec
        + DecoderToVersion(decoder runtime.Decoder, gv runtime.GroupVersioner) runtime.Decoder
        + EncoderForVersion(encoder runtime.Encoder, gv runtime.GroupVersioner) runtime.Encoder

    }
    class CodecFactoryOptions << (S,Aquamarine) >> {
        + Strict bool
        + Pretty bool

    }
    class WithoutConversionCodecFactory << (S,Aquamarine) >> {
        + EncoderForVersion(serializer runtime.Encoder, version runtime.GroupVersioner) runtime.Encoder
        + DecoderToVersion(serializer runtime.Decoder, _ runtime.GroupVersioner) runtime.Decoder

    }
    class negotiatedSerializerWrapper << (S,Aquamarine) >> {
        + SupportedMediaTypes() []runtime.SerializerInfo
        + EncoderForVersion(e runtime.Encoder, _ runtime.GroupVersioner) runtime.Encoder
        + DecoderToVersion(d runtime.Decoder, _gv runtime.GroupVersioner) runtime.Decoder

    }
    class serializer.CodecFactoryOptionsMutator << (T, #FF7700) >>  {
    }
    class serializerType << (S,Aquamarine) >> {
        + AcceptContentTypes []string
        + ContentType string
        + FileExtensions []string
        + EncodesAsText bool
        + Serializer runtime.Serializer
        + PrettySerializer runtime.Serializer
        + StrictSerializer runtime.Serializer
        + AcceptStreamContentTypes []string
        + StreamContentType string
        + Framer runtime.Framer
        + StreamSerializer runtime.Serializer

    }
}
"serializer.CodecFactory" *- - "serializer.WithoutConversionCodecFactory"


namespace streaming {
    interface Decoder  {
        + Decode(defaults *schema.GroupVersionKind, into runtime.Object) (runtime.Object, *schema.GroupVersionKind, error)
        + Close() error

    }
    interface Encoder  {
        + Encode(obj runtime.Object) error

    }
    interface Serializer  {
        + NewEncoder(w io.Writer) Encoder
        + NewDecoder(r io.ReadCloser) Decoder

    }
    class decoder << (S,Aquamarine) >> {
        + Decode(defaults *schema.GroupVersionKind, into runtime.Object) (runtime.Object, *schema.GroupVersionKind, error)
        + Close() error

    }
    class encoder << (S,Aquamarine) >> {
        + Encode(obj runtime.Object) error

    }
    class encoderWithAllocator << (S,Aquamarine) >> {
        + Encode(obj runtime.Object) error

    }
}

"streaming.Decoder" <|- - "streaming.decoder"
"streaming.Encoder" <|- - "streaming.encoder"
"streaming.Encoder" <|- - "streaming.encoderWithAllocator"

namespace versioning {
    class codec << (S,Aquamarine) >> {
        + Decode(data []byte, defaultGVK *schema.GroupVersionKind, into runtime.Object) (runtime.Object, *schema.GroupVersionKind, error)
        + EncodeWithAllocator(obj runtime.Object, w io.Writer, memAlloc runtime.MemoryAllocator) error
        + Encode(obj runtime.Object, w io.Writer) error
        + Identifier() runtime.Identifier

    }
    class codecIdentifier << (S,Aquamarine) >> {
        + EncodeGV string
        + Encoder string
        + Name string

    }
}


namespace yaml {
    class SimpleMetaFactory << (S,Aquamarine) >> {
        + Interpret(data []byte) (*schema.GroupVersionKind, error)

    }
    class yamlSerializer << (S,Aquamarine) >> {
        + Decode(data []byte, gvk *schema.GroupVersionKind, into runtime.Object) (runtime.Object, *schema.GroupVersionKind, error)

    }
}
"runtime.Serializer" *- - "yaml.yamlSerializer"

"json.MetaFactory" <|- - "yaml.SimpleMetaFactory"

hide methods
@enduml

PlantUML version 1.2022.7(Tue Aug 23 01:01:30 CST 2022)
(GPL source distribution)
Java Runtime: OpenJDK Runtime Environment
JVM: OpenJDK 64-Bit Server VM
Default Encoding: UTF-8
Language: zh
Country: CN
--></g></svg>