<?xml version="1.0" encoding="UTF-8" standalone="no"?><svg xmlns="http://www.w3.org/2000/svg" xmlns:xlink="http://www.w3.org/1999/xlink" contentStyleType="text/css" height="864px" preserveAspectRatio="none" style="width:2001px;height:864px;background:#FFFFFF;" version="1.1" viewBox="0 0 2001 864" width="2001px" zoomAndPan="magnify"><defs/><g><!--MD5=[a764fec579eb847f31cd8225e2f3b6c6]
cluster labels--><g id="cluster_labels"><path d="M8.5,6.532 L49.5,6.532 A3.75,3.75 0 0 1 52,9.032 L59,32.8039 L1991.5,32.8039 A2.5,2.5 0 0 1 1994,35.3039 L1994,855.032 A2.5,2.5 0 0 1 1991.5,857.532 L8.5,857.532 A2.5,2.5 0 0 1 6,855.032 L6,9.032 A2.5,2.5 0 0 1 8.5,6.532 " fill="none" style="stroke:#000000;stroke-width:1.5;"/><line style="stroke:#000000;stroke-width:1.5;" x1="6" x2="59" y1="32.8039" y2="32.8039"/><text fill="#000000" font-family="sans-serif" font-size="14" font-weight="bold" lengthAdjust="spacing" textLength="40" x="10" y="24.7719">labels</text></g><!--MD5=[247baf2aa7c9f12421a25def33eaa460]
class labels.ByKey--><g id="elem_labels.ByKey"><rect codeLine="108" fill="#F1F1F1" height="108.8157" id="labels.ByKey" rx="2.5" ry="2.5" style="stroke:#181818;stroke-width:0.5;" width="155" x="1066.5" y="149.032"/><ellipse cx="1119.75" cy="165.032" fill="#FF7700" rx="11" ry="11" style="stroke:#181818;stroke-width:1.0;"/><path d="M1118.4844,172.032 L1121.0313,172.032 L1121.0313,161.5164 L1123.6563,161.5164 L1123.6563,159.407 L1115.8438,159.407 L1115.8438,161.5164 L1118.4844,161.5164 L1118.4844,172.032 Z " fill="#000000"/><text fill="#000000" font-family="sans-serif" font-size="14" lengthAdjust="spacing" textLength="40" x="1140.25" y="171.136">ByKey</text><line style="stroke:#181818;stroke-width:0.5;" x1="1067.5" x2="1220.5" y1="181.032" y2="181.032"/><line style="stroke:#181818;stroke-width:0.5;" x1="1067.5" x2="1220.5" y1="189.032" y2="189.032"/><ellipse cx="1077.5" cy="204.6679" fill="#84BE84" rx="3" ry="3" style="stroke:#038048;stroke-width:1.0;"/><text fill="#000000" font-family="sans-serif" font-size="14" lengthAdjust="spacing" textLength="56" x="1086.5" y="209.2719">Len() int</text><ellipse cx="1077.5" cy="224.9398" fill="#84BE84" rx="3" ry="3" style="stroke:#038048;stroke-width:1.0;"/><text fill="#000000" font-family="sans-serif" font-size="14" lengthAdjust="spacing" textLength="103" x="1086.5" y="229.5438">Swap(i int, j int)</text><ellipse cx="1077.5" cy="245.2118" fill="#84BE84" rx="3" ry="3" style="stroke:#038048;stroke-width:1.0;"/><text fill="#000000" font-family="sans-serif" font-size="14" lengthAdjust="spacing" textLength="129" x="1086.5" y="249.8157">Less(i int, j int) bool</text></g><!--MD5=[d252cdbf9a65d360d7f37263b52788a2]
class labels.Labels--><g id="elem_labels.Labels"><rect codeLine="8" fill="#F1F1F1" height="88.5438" id="labels.Labels" rx="2.5" ry="2.5" style="stroke:#181818;stroke-width:0.5;" width="174" x="857" y="159.032"/><ellipse cx="917.75" cy="175.032" fill="#B4A7E5" rx="11" ry="11" style="stroke:#181818;stroke-width:1.0;"/><path d="M914.1094,181.532 L920.8906,181.532 L920.8906,179.4539 L918.7344,179.4539 L918.7344,171.0164 L920.8906,171.0164 L920.8906,168.907 L914.1094,168.907 L914.1094,171.0164 L916.2031,171.0164 L916.2031,179.4539 L914.1094,179.4539 L914.1094,181.532 Z " fill="#000000"/><text fill="#000000" font-family="sans-serif" font-size="14" font-style="italic" lengthAdjust="spacing" textLength="44" x="938.25" y="181.136">Labels</text><line style="stroke:#181818;stroke-width:0.5;" x1="858" x2="1030" y1="191.032" y2="191.032"/><line style="stroke:#181818;stroke-width:0.5;" x1="858" x2="1030" y1="199.032" y2="199.032"/><ellipse cx="868" cy="214.6679" fill="#84BE84" rx="3" ry="3" style="stroke:#038048;stroke-width:1.0;"/><text fill="#000000" font-family="sans-serif" font-size="14" lengthAdjust="spacing" textLength="141" x="877" y="219.2719">Has(label string) bool</text><ellipse cx="868" cy="234.9398" fill="#84BE84" rx="3" ry="3" style="stroke:#038048;stroke-width:1.0;"/><text fill="#000000" font-family="sans-serif" font-size="14" lengthAdjust="spacing" textLength="148" x="877" y="239.5438">Get(label string) string</text></g><!--MD5=[61a378f7eb137bb7eb8c3c1249277d74]
class labels.Lexer--><g id="elem_labels.Lexer"><rect codeLine="13" fill="#F1F1F1" height="230.4472" id="labels.Lexer" rx="2.5" ry="2.5" style="stroke:#181818;stroke-width:0.5;" width="263" x="1256.5" y="88.532"/><ellipse cx="1365.75" cy="104.532" fill="#7FFFD4" rx="11" ry="11" style="stroke:#181818;stroke-width:1.0;"/><path d="M1365.9375,111.2351 C1368.2344,111.2351 1369.6875,109.6101 1369.6875,107.6101 C1369.6875,105.782 1368.8594,104.9382 1367.7188,104.1414 L1366.7031,103.4226 C1365.5781,102.6101 1365.1563,102.3132 1365.1563,101.4539 C1365.1563,100.7664 1365.6406,100.3601 1366.2188,100.3601 C1366.9531,100.3601 1367.4375,100.7507 1368.1406,101.3914 L1369.4531,99.8132 C1368.4844,98.7976 1367.4688,98.2039 1366.2031,98.2039 C1364.0625,98.2039 1362.6094,99.7195 1362.6094,101.6414 C1362.6094,103.4382 1363.5313,104.3445 1364.625,105.0945 L1365.7188,105.8445 C1366.6563,106.4539 1367.1094,107.032 1367.1094,107.9695 C1367.1094,108.6414 1366.6406,109.0632 1365.9375,109.0632 C1365.2344,109.0632 1364.4844,108.5476 1363.8281,107.7195 L1362.2813,109.407 C1363.3125,110.5945 1364.6094,111.2351 1365.9375,111.2351 Z " fill="#000000"/><text fill="#000000" font-family="sans-serif" font-size="14" lengthAdjust="spacing" textLength="36" x="1386.25" y="110.636">Lexer</text><line style="stroke:#181818;stroke-width:0.5;" x1="1257.5" x2="1518.5" y1="120.532" y2="120.532"/><rect fill="none" height="6" style="stroke:#C82930;stroke-width:1.0;" width="6" x="1264.5" y="133.1679"/><text fill="#000000" font-family="sans-serif" font-size="14" lengthAdjust="spacing" textLength="48" x="1276.5" y="140.7719">s string</text><rect fill="none" height="6" style="stroke:#C82930;stroke-width:1.0;" width="6" x="1264.5" y="153.4398"/><text fill="#000000" font-family="sans-serif" font-size="14" lengthAdjust="spacing" textLength="45" x="1276.5" y="161.0438">pos int</text><line style="stroke:#181818;stroke-width:0.5;" x1="1257.5" x2="1518.5" y1="169.0758" y2="169.0758"/><rect fill="#F24D5C" height="6" style="stroke:#C82930;stroke-width:1.0;" width="6" x="1264.5" y="181.7118"/><text fill="#000000" font-family="sans-serif" font-size="14" lengthAdjust="spacing" textLength="72" x="1276.5" y="189.3157">read() byte</text><rect fill="#F24D5C" height="6" style="stroke:#C82930;stroke-width:1.0;" width="6" x="1264.5" y="201.9837"/><text fill="#000000" font-family="sans-serif" font-size="14" lengthAdjust="spacing" textLength="58" x="1276.5" y="209.5876">unread()</text><rect fill="#F24D5C" height="6" style="stroke:#C82930;stroke-width:1.0;" width="6" x="1264.5" y="222.2556"/><text fill="#000000" font-family="sans-serif" font-size="14" lengthAdjust="spacing" textLength="226" x="1276.5" y="229.8596">scanIDOrKeyword() (Token, string)</text><rect fill="#F24D5C" height="6" style="stroke:#C82930;stroke-width:1.0;" width="6" x="1264.5" y="242.5275"/><text fill="#000000" font-family="sans-serif" font-size="14" lengthAdjust="spacing" textLength="237" x="1276.5" y="250.1315">scanSpecialSymbol() (Token, string)</text><rect fill="#F24D5C" height="6" style="stroke:#C82930;stroke-width:1.0;" width="6" x="1264.5" y="262.7994"/><text fill="#000000" font-family="sans-serif" font-size="14" lengthAdjust="spacing" textLength="203" x="1276.5" y="270.4034">skipWhiteSpaces(ch byte) byte</text><text fill="#000000" font-family="sans-serif" font-size="14" lengthAdjust="spacing" textLength="3" x="1276.5" y="290.6753"> </text><ellipse cx="1267.5" cy="306.3432" fill="#84BE84" rx="3" ry="3" style="stroke:#038048;stroke-width:1.0;"/><text fill="#000000" font-family="sans-serif" font-size="14" lengthAdjust="spacing" textLength="132" x="1276.5" y="310.9472">Lex() (Token, string)</text></g><!--MD5=[010cf24e19b03b86635827a431208794]
class labels.Parser--><g id="elem_labels.Parser"><rect codeLine="26" fill="#F1F1F1" height="331.8068" id="labels.Parser" rx="2.5" ry="2.5" style="stroke:#181818;stroke-width:0.5;" width="431" x="1554.5" y="37.532"/><ellipse cx="1744.75" cy="53.532" fill="#7FFFD4" rx="11" ry="11" style="stroke:#181818;stroke-width:1.0;"/><path d="M1744.9375,60.2351 C1747.2344,60.2351 1748.6875,58.6101 1748.6875,56.6101 C1748.6875,54.782 1747.8594,53.9382 1746.7188,53.1414 L1745.7031,52.4226 C1744.5781,51.6101 1744.1563,51.3132 1744.1563,50.4539 C1744.1563,49.7664 1744.6406,49.3601 1745.2188,49.3601 C1745.9531,49.3601 1746.4375,49.7507 1747.1406,50.3914 L1748.4531,48.8132 C1747.4844,47.7976 1746.4688,47.2039 1745.2031,47.2039 C1743.0625,47.2039 1741.6094,48.7195 1741.6094,50.6414 C1741.6094,52.4382 1742.5313,53.3445 1743.625,54.0945 L1744.7188,54.8445 C1745.6563,55.4539 1746.1094,56.032 1746.1094,56.9695 C1746.1094,57.6414 1745.6406,58.0632 1744.9375,58.0632 C1744.2344,58.0632 1743.4844,57.5476 1742.8281,56.7195 L1741.2813,58.407 C1742.3125,59.5945 1743.6094,60.2351 1744.9375,60.2351 Z " fill="#000000"/><text fill="#000000" font-family="sans-serif" font-size="14" lengthAdjust="spacing" textLength="42" x="1765.25" y="59.636">Parser</text><line style="stroke:#181818;stroke-width:0.5;" x1="1555.5" x2="1984.5" y1="69.532" y2="69.532"/><rect fill="none" height="6" style="stroke:#C82930;stroke-width:1.0;" width="6" x="1562.5" y="82.1679"/><text fill="#000000" font-family="sans-serif" font-size="14" lengthAdjust="spacing" textLength="50" x="1574.5" y="89.7719">l *Lexer</text><rect fill="none" height="6" style="stroke:#C82930;stroke-width:1.0;" width="6" x="1562.5" y="102.4398"/><text fill="#000000" font-family="sans-serif" font-size="14" lengthAdjust="spacing" textLength="195" x="1574.5" y="110.0438">scannedItems []ScannedItem</text><rect fill="none" height="6" style="stroke:#C82930;stroke-width:1.0;" width="6" x="1562.5" y="122.7118"/><text fill="#000000" font-family="sans-serif" font-size="14" lengthAdjust="spacing" textLength="75" x="1574.5" y="130.3157">position int</text><rect fill="none" height="6" style="stroke:#C82930;stroke-width:1.0;" width="6" x="1562.5" y="142.9837"/><text fill="#000000" font-family="sans-serif" font-size="14" lengthAdjust="spacing" textLength="106" x="1574.5" y="150.5876">path *field.Path</text><line style="stroke:#181818;stroke-width:0.5;" x1="1555.5" x2="1984.5" y1="158.6196" y2="158.6196"/><rect fill="#F24D5C" height="6" style="stroke:#C82930;stroke-width:1.0;" width="6" x="1562.5" y="171.2556"/><text fill="#000000" font-family="sans-serif" font-size="14" lengthAdjust="spacing" textLength="324" x="1574.5" y="178.8596">lookahead(context ParserContext) (Token, string)</text><rect fill="#F24D5C" height="6" style="stroke:#C82930;stroke-width:1.0;" width="6" x="1562.5" y="191.5275"/><text fill="#000000" font-family="sans-serif" font-size="14" lengthAdjust="spacing" textLength="315" x="1574.5" y="199.1315">consume(context ParserContext) (Token, string)</text><rect fill="#F24D5C" height="6" style="stroke:#C82930;stroke-width:1.0;" width="6" x="1562.5" y="211.7994"/><text fill="#000000" font-family="sans-serif" font-size="14" lengthAdjust="spacing" textLength="41" x="1574.5" y="219.4034">scan()</text><rect fill="#F24D5C" height="6" style="stroke:#C82930;stroke-width:1.0;" width="6" x="1562.5" y="232.0713"/><text fill="#000000" font-family="sans-serif" font-size="14" lengthAdjust="spacing" textLength="203" x="1574.5" y="239.6753">parse() (internalSelector, error)</text><rect fill="#F24D5C" height="6" style="stroke:#C82930;stroke-width:1.0;" width="6" x="1562.5" y="252.3432"/><text fill="#000000" font-family="sans-serif" font-size="14" lengthAdjust="spacing" textLength="279" x="1574.5" y="259.9472">parseRequirement() (*Requirement, error)</text><rect fill="#F24D5C" height="6" style="stroke:#C82930;stroke-width:1.0;" width="6" x="1562.5" y="272.6151"/><text fill="#000000" font-family="sans-serif" font-size="14" lengthAdjust="spacing" textLength="405" x="1574.5" y="280.2191">parseKeyAndInferOperator() (string, selection.Operator, error)</text><rect fill="#F24D5C" height="6" style="stroke:#C82930;stroke-width:1.0;" width="6" x="1562.5" y="292.8871"/><text fill="#000000" font-family="sans-serif" font-size="14" lengthAdjust="spacing" textLength="278" x="1574.5" y="300.491">parseOperator() (selection.Operator, error)</text><rect fill="#F24D5C" height="6" style="stroke:#C82930;stroke-width:1.0;" width="6" x="1562.5" y="313.159"/><text fill="#000000" font-family="sans-serif" font-size="14" lengthAdjust="spacing" textLength="212" x="1574.5" y="320.7629">parseValues() (sets.String, error)</text><rect fill="#F24D5C" height="6" style="stroke:#C82930;stroke-width:1.0;" width="6" x="1562.5" y="333.4309"/><text fill="#000000" font-family="sans-serif" font-size="14" lengthAdjust="spacing" textLength="260" x="1574.5" y="341.0349">parseIdentifiersList() (sets.String, error)</text><rect fill="#F24D5C" height="6" style="stroke:#C82930;stroke-width:1.0;" width="6" x="1562.5" y="353.7028"/><text fill="#000000" font-family="sans-serif" font-size="14" lengthAdjust="spacing" textLength="240" x="1574.5" y="361.3068">parseExactValue() (sets.String, error)</text></g><!--MD5=[c9863dd272da1e1eba23244b510b7d16]
class labels.Requirement--><g id="elem_labels.Requirement"><rect codeLine="44" fill="#F1F1F1" height="311.5349" id="labels.Requirement" rx="2.5" ry="2.5" style="stroke:#181818;stroke-width:0.5;" width="249" x="1420.5" y="429.532"/><ellipse cx="1497.25" cy="445.532" fill="#7FFFD4" rx="11" ry="11" style="stroke:#181818;stroke-width:1.0;"/><path d="M1497.4375,452.2351 C1499.7344,452.2351 1501.1875,450.6101 1501.1875,448.6101 C1501.1875,446.782 1500.3594,445.9382 1499.2188,445.1414 L1498.2031,444.4226 C1497.0781,443.6101 1496.6563,443.3132 1496.6563,442.4539 C1496.6563,441.7664 1497.1406,441.3601 1497.7188,441.3601 C1498.4531,441.3601 1498.9375,441.7507 1499.6406,442.3914 L1500.9531,440.8132 C1499.9844,439.7976 1498.9688,439.2039 1497.7031,439.2039 C1495.5625,439.2039 1494.1094,440.7195 1494.1094,442.6414 C1494.1094,444.4382 1495.0313,445.3445 1496.125,446.0945 L1497.2188,446.8445 C1498.1563,447.4539 1498.6094,448.032 1498.6094,448.9695 C1498.6094,449.6414 1498.1406,450.0632 1497.4375,450.0632 C1496.7344,450.0632 1495.9844,449.5476 1495.3281,448.7195 L1493.7813,450.407 C1494.8125,451.5945 1496.1094,452.2351 1497.4375,452.2351 Z " fill="#000000"/><text fill="#000000" font-family="sans-serif" font-size="14" lengthAdjust="spacing" textLength="87" x="1517.75" y="451.636">Requirement</text><line style="stroke:#181818;stroke-width:0.5;" x1="1421.5" x2="1668.5" y1="461.532" y2="461.532"/><rect fill="none" height="6" style="stroke:#C82930;stroke-width:1.0;" width="6" x="1428.5" y="474.1679"/><text fill="#000000" font-family="sans-serif" font-size="14" lengthAdjust="spacing" textLength="64" x="1440.5" y="481.7719">key string</text><rect fill="none" height="6" style="stroke:#C82930;stroke-width:1.0;" width="6" x="1428.5" y="494.4398"/><text fill="#000000" font-family="sans-serif" font-size="14" lengthAdjust="spacing" textLength="181" x="1440.5" y="502.0438">operator selection.Operator</text><rect fill="none" height="6" style="stroke:#C82930;stroke-width:1.0;" width="6" x="1428.5" y="514.7118"/><text fill="#000000" font-family="sans-serif" font-size="14" lengthAdjust="spacing" textLength="112" x="1440.5" y="522.3157">strValues []string</text><line style="stroke:#181818;stroke-width:0.5;" x1="1421.5" x2="1668.5" y1="530.3477" y2="530.3477"/><rect fill="#F24D5C" height="6" style="stroke:#C82930;stroke-width:1.0;" width="6" x="1428.5" y="542.9837"/><text fill="#000000" font-family="sans-serif" font-size="14" lengthAdjust="spacing" textLength="180" x="1440.5" y="550.5876">hasValue(value string) bool</text><text fill="#000000" font-family="sans-serif" font-size="14" lengthAdjust="spacing" textLength="3" x="1440.5" y="570.8596"> </text><ellipse cx="1431.5" cy="586.5275" fill="#84BE84" rx="3" ry="3" style="stroke:#038048;stroke-width:1.0;"/><text fill="#000000" font-family="sans-serif" font-size="14" lengthAdjust="spacing" textLength="155" x="1440.5" y="591.1315">Matches(ls Labels) bool</text><ellipse cx="1431.5" cy="606.7994" fill="#84BE84" rx="3" ry="3" style="stroke:#038048;stroke-width:1.0;"/><text fill="#000000" font-family="sans-serif" font-size="14" lengthAdjust="spacing" textLength="75" x="1440.5" y="611.4034">Key() string</text><ellipse cx="1431.5" cy="627.0713" fill="#84BE84" rx="3" ry="3" style="stroke:#038048;stroke-width:1.0;"/><text fill="#000000" font-family="sans-serif" font-size="14" lengthAdjust="spacing" textLength="193" x="1440.5" y="631.6753">Operator() selection.Operator</text><ellipse cx="1431.5" cy="647.3432" fill="#84BE84" rx="3" ry="3" style="stroke:#038048;stroke-width:1.0;"/><text fill="#000000" font-family="sans-serif" font-size="14" lengthAdjust="spacing" textLength="127" x="1440.5" y="651.9472">Values() sets.String</text><ellipse cx="1431.5" cy="667.6151" fill="#84BE84" rx="3" ry="3" style="stroke:#038048;stroke-width:1.0;"/><text fill="#000000" font-family="sans-serif" font-size="14" lengthAdjust="spacing" textLength="177" x="1440.5" y="672.2191">Equal(x Requirement) bool</text><ellipse cx="1431.5" cy="687.8871" fill="#84BE84" rx="3" ry="3" style="stroke:#038048;stroke-width:1.0;"/><text fill="#000000" font-family="sans-serif" font-size="14" lengthAdjust="spacing" textLength="90" x="1440.5" y="692.491">String() string</text><ellipse cx="1431.5" cy="708.159" fill="#84BE84" rx="3" ry="3" style="stroke:#038048;stroke-width:1.0;"/><text fill="#000000" font-family="sans-serif" font-size="14" lengthAdjust="spacing" textLength="223" x="1440.5" y="712.7629">DeepCopyInto(out *Requirement)</text><ellipse cx="1431.5" cy="728.4309" fill="#84BE84" rx="3" ry="3" style="stroke:#038048;stroke-width:1.0;"/><text fill="#000000" font-family="sans-serif" font-size="14" lengthAdjust="spacing" textLength="175" x="1440.5" y="733.0349">DeepCopy() *Requirement</text></g><!--MD5=[1eea8b3cc5ffe3392c614947e851dbb5]
class labels.ScannedItem--><g id="elem_labels.ScannedItem"><rect codeLine="61" fill="#F1F1F1" height="88.5438" id="labels.ScannedItem" rx="2.5" ry="2.5" style="stroke:#181818;stroke-width:0.5;" width="120" x="1705" y="541.032"/><ellipse cx="1720" cy="557.032" fill="#7FFFD4" rx="11" ry="11" style="stroke:#181818;stroke-width:1.0;"/><path d="M1720.1875,563.7351 C1722.4844,563.7351 1723.9375,562.1101 1723.9375,560.1101 C1723.9375,558.282 1723.1094,557.4382 1721.9688,556.6414 L1720.9531,555.9226 C1719.8281,555.1101 1719.4063,554.8132 1719.4063,553.9539 C1719.4063,553.2664 1719.8906,552.8601 1720.4688,552.8601 C1721.2031,552.8601 1721.6875,553.2507 1722.3906,553.8914 L1723.7031,552.3132 C1722.7344,551.2976 1721.7188,550.7039 1720.4531,550.7039 C1718.3125,550.7039 1716.8594,552.2195 1716.8594,554.1414 C1716.8594,555.9382 1717.7813,556.8445 1718.875,557.5945 L1719.9688,558.3445 C1720.9063,558.9539 1721.3594,559.532 1721.3594,560.4695 C1721.3594,561.1414 1720.8906,561.5632 1720.1875,561.5632 C1719.4844,561.5632 1718.7344,561.0476 1718.0781,560.2195 L1716.5313,561.907 C1717.5625,563.0945 1718.8594,563.7351 1720.1875,563.7351 Z " fill="#000000"/><text fill="#000000" font-family="sans-serif" font-size="14" lengthAdjust="spacing" textLength="88" x="1734" y="563.136">ScannedItem</text><line style="stroke:#181818;stroke-width:0.5;" x1="1706" x2="1824" y1="573.032" y2="573.032"/><rect fill="none" height="6" style="stroke:#C82930;stroke-width:1.0;" width="6" x="1713" y="585.6679"/><text fill="#000000" font-family="sans-serif" font-size="14" lengthAdjust="spacing" textLength="65" x="1725" y="593.2719">tok Token</text><rect fill="none" height="6" style="stroke:#C82930;stroke-width:1.0;" width="6" x="1713" y="605.9398"/><text fill="#000000" font-family="sans-serif" font-size="14" lengthAdjust="spacing" textLength="79" x="1725" y="613.5438">literal string</text><line style="stroke:#181818;stroke-width:0.5;" x1="1706" x2="1824" y1="621.5758" y2="621.5758"/></g><!--MD5=[1a4643d38669187e883da68d5a449497]
class labels.Selector--><g id="elem_labels.Selector"><rect codeLine="66" fill="#F1F1F1" height="189.9034" id="labels.Selector" rx="2.5" ry="2.5" style="stroke:#181818;stroke-width:0.5;" width="331" x="380.5" y="108.532"/><ellipse cx="515.25" cy="124.532" fill="#B4A7E5" rx="11" ry="11" style="stroke:#181818;stroke-width:1.0;"/><path d="M511.6094,131.032 L518.3906,131.032 L518.3906,128.9539 L516.2344,128.9539 L516.2344,120.5164 L518.3906,120.5164 L518.3906,118.407 L511.6094,118.407 L511.6094,120.5164 L513.7031,120.5164 L513.7031,128.9539 L511.6094,128.9539 L511.6094,131.032 Z " fill="#000000"/><text fill="#000000" font-family="sans-serif" font-size="14" font-style="italic" lengthAdjust="spacing" textLength="53" x="535.75" y="130.636">Selector</text><line style="stroke:#181818;stroke-width:0.5;" x1="381.5" x2="710.5" y1="140.532" y2="140.532"/><line style="stroke:#181818;stroke-width:0.5;" x1="381.5" x2="710.5" y1="148.532" y2="148.532"/><ellipse cx="391.5" cy="164.1679" fill="#84BE84" rx="3" ry="3" style="stroke:#038048;stroke-width:1.0;"/><text fill="#000000" font-family="sans-serif" font-size="14" lengthAdjust="spacing" textLength="144" x="400.5" y="168.7719">Matches( Labels) bool</text><ellipse cx="391.5" cy="184.4398" fill="#84BE84" rx="3" ry="3" style="stroke:#038048;stroke-width:1.0;"/><text fill="#000000" font-family="sans-serif" font-size="14" lengthAdjust="spacing" textLength="84" x="400.5" y="189.0438">Empty() bool</text><ellipse cx="391.5" cy="204.7118" fill="#84BE84" rx="3" ry="3" style="stroke:#038048;stroke-width:1.0;"/><text fill="#000000" font-family="sans-serif" font-size="14" lengthAdjust="spacing" textLength="90" x="400.5" y="209.3157">String() string</text><ellipse cx="391.5" cy="224.9837" fill="#84BE84" rx="3" ry="3" style="stroke:#038048;stroke-width:1.0;"/><text fill="#000000" font-family="sans-serif" font-size="14" lengthAdjust="spacing" textLength="200" x="400.5" y="229.5876">Add(r ...Requirement) Selector</text><ellipse cx="391.5" cy="245.2556" fill="#84BE84" rx="3" ry="3" style="stroke:#038048;stroke-width:1.0;"/><text fill="#000000" font-family="sans-serif" font-size="14" lengthAdjust="spacing" textLength="247" x="400.5" y="249.8596">Requirements() (Requirements, bool)</text><ellipse cx="391.5" cy="265.5275" fill="#84BE84" rx="3" ry="3" style="stroke:#038048;stroke-width:1.0;"/><text fill="#000000" font-family="sans-serif" font-size="14" lengthAdjust="spacing" textLength="187" x="400.5" y="270.1315">DeepCopySelector() Selector</text><ellipse cx="391.5" cy="285.7994" fill="#84BE84" rx="3" ry="3" style="stroke:#038048;stroke-width:1.0;"/><text fill="#000000" font-family="sans-serif" font-size="14" lengthAdjust="spacing" textLength="305" x="400.5" y="290.4034">RequiresExactMatch(label string) (string, bool)</text></g><!--MD5=[7a0adb6ad8e6c0d35bc30d061c21e0d4]
class labels.Set--><g id="elem_labels.Set"><rect codeLine="114" fill="#F1F1F1" height="169.6315" id="labels.Set" rx="2.5" ry="2.5" style="stroke:#181818;stroke-width:0.5;" width="272" x="1113" y="500.532"/><ellipse cx="1234.25" cy="516.532" fill="#FF7700" rx="11" ry="11" style="stroke:#181818;stroke-width:1.0;"/><path d="M1232.9844,523.532 L1235.5313,523.532 L1235.5313,513.0164 L1238.1563,513.0164 L1238.1563,510.907 L1230.3438,510.907 L1230.3438,513.0164 L1232.9844,513.0164 L1232.9844,523.532 Z " fill="#000000"/><text fill="#000000" font-family="sans-serif" font-size="14" lengthAdjust="spacing" textLength="21" x="1254.75" y="522.636">Set</text><line style="stroke:#181818;stroke-width:0.5;" x1="1114" x2="1384" y1="532.532" y2="532.532"/><line style="stroke:#181818;stroke-width:0.5;" x1="1114" x2="1384" y1="540.532" y2="540.532"/><ellipse cx="1124" cy="556.1679" fill="#84BE84" rx="3" ry="3" style="stroke:#038048;stroke-width:1.0;"/><text fill="#000000" font-family="sans-serif" font-size="14" lengthAdjust="spacing" textLength="90" x="1133" y="560.7719">String() string</text><ellipse cx="1124" cy="576.4398" fill="#84BE84" rx="3" ry="3" style="stroke:#038048;stroke-width:1.0;"/><text fill="#000000" font-family="sans-serif" font-size="14" lengthAdjust="spacing" textLength="141" x="1133" y="581.0438">Has(label string) bool</text><ellipse cx="1124" cy="596.7118" fill="#84BE84" rx="3" ry="3" style="stroke:#038048;stroke-width:1.0;"/><text fill="#000000" font-family="sans-serif" font-size="14" lengthAdjust="spacing" textLength="148" x="1133" y="601.3157">Get(label string) string</text><ellipse cx="1124" cy="616.9837" fill="#84BE84" rx="3" ry="3" style="stroke:#038048;stroke-width:1.0;"/><text fill="#000000" font-family="sans-serif" font-size="14" lengthAdjust="spacing" textLength="135" x="1133" y="621.5876">AsSelector() Selector</text><ellipse cx="1124" cy="637.2556" fill="#84BE84" rx="3" ry="3" style="stroke:#038048;stroke-width:1.0;"/><text fill="#000000" font-family="sans-serif" font-size="14" lengthAdjust="spacing" textLength="246" x="1133" y="641.8596">AsValidatedSelector() (Selector, error)</text><ellipse cx="1124" cy="657.5275" fill="#84BE84" rx="3" ry="3" style="stroke:#038048;stroke-width:1.0;"/><text fill="#000000" font-family="sans-serif" font-size="14" lengthAdjust="spacing" textLength="220" x="1133" y="662.1315">AsSelectorPreValidated() Selector</text></g><!--MD5=[3153d5d443a47e2eee2adcd30cd88c47]
class labels.ValidatedSetSelector--><g id="elem_labels.ValidatedSetSelector"><rect codeLine="118" fill="#F1F1F1" height="230.4472" id="labels.ValidatedSetSelector" rx="2.5" ry="2.5" style="stroke:#181818;stroke-width:0.5;" width="331" x="14.5" y="470.532"/><ellipse cx="107.25" cy="486.532" fill="#FF7700" rx="11" ry="11" style="stroke:#181818;stroke-width:1.0;"/><path d="M105.9844,493.532 L108.5313,493.532 L108.5313,483.0164 L111.1563,483.0164 L111.1563,480.907 L103.3438,480.907 L103.3438,483.0164 L105.9844,483.0164 L105.9844,493.532 Z " fill="#000000"/><text fill="#000000" font-family="sans-serif" font-size="14" lengthAdjust="spacing" textLength="137" x="127.75" y="492.636">ValidatedSetSelector</text><line style="stroke:#181818;stroke-width:0.5;" x1="15.5" x2="344.5" y1="502.532" y2="502.532"/><line style="stroke:#181818;stroke-width:0.5;" x1="15.5" x2="344.5" y1="510.532" y2="510.532"/><rect fill="#F24D5C" height="6" style="stroke:#C82930;stroke-width:1.0;" width="6" x="22.5" y="523.1679"/><text fill="#000000" font-family="sans-serif" font-size="14" lengthAdjust="spacing" textLength="157" x="34.5" y="530.7719">toFullSelector() Selector</text><text fill="#000000" font-family="sans-serif" font-size="14" lengthAdjust="spacing" textLength="3" x="34.5" y="551.0438"> </text><ellipse cx="25.5" cy="566.7118" fill="#84BE84" rx="3" ry="3" style="stroke:#038048;stroke-width:1.0;"/><text fill="#000000" font-family="sans-serif" font-size="14" lengthAdjust="spacing" textLength="184" x="34.5" y="571.3157">Matches(labels Labels) bool</text><ellipse cx="25.5" cy="586.9837" fill="#84BE84" rx="3" ry="3" style="stroke:#038048;stroke-width:1.0;"/><text fill="#000000" font-family="sans-serif" font-size="14" lengthAdjust="spacing" textLength="84" x="34.5" y="591.5876">Empty() bool</text><ellipse cx="25.5" cy="607.2556" fill="#84BE84" rx="3" ry="3" style="stroke:#038048;stroke-width:1.0;"/><text fill="#000000" font-family="sans-serif" font-size="14" lengthAdjust="spacing" textLength="90" x="34.5" y="611.8596">String() string</text><ellipse cx="25.5" cy="627.5275" fill="#84BE84" rx="3" ry="3" style="stroke:#038048;stroke-width:1.0;"/><text fill="#000000" font-family="sans-serif" font-size="14" lengthAdjust="spacing" textLength="200" x="34.5" y="632.1315">Add(r ...Requirement) Selector</text><ellipse cx="25.5" cy="647.7994" fill="#84BE84" rx="3" ry="3" style="stroke:#038048;stroke-width:1.0;"/><text fill="#000000" font-family="sans-serif" font-size="14" lengthAdjust="spacing" textLength="247" x="34.5" y="652.4034">Requirements() (Requirements, bool)</text><ellipse cx="25.5" cy="668.0713" fill="#84BE84" rx="3" ry="3" style="stroke:#038048;stroke-width:1.0;"/><text fill="#000000" font-family="sans-serif" font-size="14" lengthAdjust="spacing" textLength="187" x="34.5" y="672.6753">DeepCopySelector() Selector</text><ellipse cx="25.5" cy="688.3432" fill="#84BE84" rx="3" ry="3" style="stroke:#038048;stroke-width:1.0;"/><text fill="#000000" font-family="sans-serif" font-size="14" lengthAdjust="spacing" textLength="305" x="34.5" y="692.9472">RequiresExactMatch(label string) (string, bool)</text></g><!--MD5=[cc2380c8a25a8f99227d923c7a86a436]
class labels.internalSelector--><g id="elem_labels.internalSelector"><rect codeLine="120" fill="#F1F1F1" height="210.1753" id="labels.internalSelector" rx="2.5" ry="2.5" style="stroke:#181818;stroke-width:0.5;" width="331" x="380.5" y="480.532"/><ellipse cx="489.25" cy="496.532" fill="#FF7700" rx="11" ry="11" style="stroke:#181818;stroke-width:1.0;"/><path d="M487.9844,503.532 L490.5313,503.532 L490.5313,493.0164 L493.1563,493.0164 L493.1563,490.907 L485.3438,490.907 L485.3438,493.0164 L487.9844,493.0164 L487.9844,503.532 Z " fill="#000000"/><text fill="#000000" font-family="sans-serif" font-size="14" lengthAdjust="spacing" textLength="105" x="509.75" y="502.636">internalSelector</text><line style="stroke:#181818;stroke-width:0.5;" x1="381.5" x2="710.5" y1="512.532" y2="512.532"/><line style="stroke:#181818;stroke-width:0.5;" x1="381.5" x2="710.5" y1="520.532" y2="520.532"/><ellipse cx="391.5" cy="536.1679" fill="#84BE84" rx="3" ry="3" style="stroke:#038048;stroke-width:1.0;"/><text fill="#000000" font-family="sans-serif" font-size="14" lengthAdjust="spacing" textLength="186" x="400.5" y="540.7719">DeepCopy() internalSelector</text><ellipse cx="391.5" cy="556.4398" fill="#84BE84" rx="3" ry="3" style="stroke:#038048;stroke-width:1.0;"/><text fill="#000000" font-family="sans-serif" font-size="14" lengthAdjust="spacing" textLength="187" x="400.5" y="561.0438">DeepCopySelector() Selector</text><ellipse cx="391.5" cy="576.7118" fill="#84BE84" rx="3" ry="3" style="stroke:#038048;stroke-width:1.0;"/><text fill="#000000" font-family="sans-serif" font-size="14" lengthAdjust="spacing" textLength="84" x="400.5" y="581.3157">Empty() bool</text><ellipse cx="391.5" cy="596.9837" fill="#84BE84" rx="3" ry="3" style="stroke:#038048;stroke-width:1.0;"/><text fill="#000000" font-family="sans-serif" font-size="14" lengthAdjust="spacing" textLength="224" x="400.5" y="601.5876">Add(reqs ...Requirement) Selector</text><ellipse cx="391.5" cy="617.2556" fill="#84BE84" rx="3" ry="3" style="stroke:#038048;stroke-width:1.0;"/><text fill="#000000" font-family="sans-serif" font-size="14" lengthAdjust="spacing" textLength="148" x="400.5" y="621.8596">Matches(l Labels) bool</text><ellipse cx="391.5" cy="637.5275" fill="#84BE84" rx="3" ry="3" style="stroke:#038048;stroke-width:1.0;"/><text fill="#000000" font-family="sans-serif" font-size="14" lengthAdjust="spacing" textLength="247" x="400.5" y="642.1315">Requirements() (Requirements, bool)</text><ellipse cx="391.5" cy="657.7994" fill="#84BE84" rx="3" ry="3" style="stroke:#038048;stroke-width:1.0;"/><text fill="#000000" font-family="sans-serif" font-size="14" lengthAdjust="spacing" textLength="90" x="400.5" y="662.4034">String() string</text><ellipse cx="391.5" cy="678.0713" fill="#84BE84" rx="3" ry="3" style="stroke:#038048;stroke-width:1.0;"/><text fill="#000000" font-family="sans-serif" font-size="14" lengthAdjust="spacing" textLength="305" x="400.5" y="682.6753">RequiresExactMatch(label string) (string, bool)</text></g><!--MD5=[fc5ae929bb493ed6c8d28916836518e4]
class labels.ParserContext--><g id="elem_labels.ParserContext"><rect codeLine="110" fill="#F1F1F1" height="48" id="labels.ParserContext" rx="2.5" ry="2.5" style="stroke:#181818;stroke-width:0.5;" width="125" x="1860.5" y="561.532"/><ellipse cx="1875.5" cy="577.532" fill="#FF7700" rx="11" ry="11" style="stroke:#181818;stroke-width:1.0;"/><path d="M1874.2344,584.532 L1876.7813,584.532 L1876.7813,574.0164 L1879.4063,574.0164 L1879.4063,571.907 L1871.5938,571.907 L1871.5938,574.0164 L1874.2344,574.0164 L1874.2344,584.532 Z " fill="#000000"/><text fill="#000000" font-family="sans-serif" font-size="14" lengthAdjust="spacing" textLength="93" x="1889.5" y="583.636">ParserContext</text><line style="stroke:#181818;stroke-width:0.5;" x1="1861.5" x2="1984.5" y1="593.532" y2="593.532"/><line style="stroke:#181818;stroke-width:0.5;" x1="1861.5" x2="1984.5" y1="601.532" y2="601.532"/></g><!--MD5=[e033d192279fbb3863bf99196ec1433a]
class labels.Requirements--><g id="elem_labels.Requirements"><rect codeLine="112" fill="#F1F1F1" height="48" id="labels.Requirements" rx="2.5" ry="2.5" style="stroke:#181818;stroke-width:0.5;" width="126" x="1482" y="801.532"/><ellipse cx="1497" cy="817.532" fill="#FF7700" rx="11" ry="11" style="stroke:#181818;stroke-width:1.0;"/><path d="M1495.7344,824.532 L1498.2813,824.532 L1498.2813,814.0164 L1500.9063,814.0164 L1500.9063,811.907 L1493.0938,811.907 L1493.0938,814.0164 L1495.7344,814.0164 L1495.7344,824.532 Z " fill="#000000"/><text fill="#000000" font-family="sans-serif" font-size="14" lengthAdjust="spacing" textLength="94" x="1511" y="823.636">Requirements</text><line style="stroke:#181818;stroke-width:0.5;" x1="1483" x2="1607" y1="833.532" y2="833.532"/><line style="stroke:#181818;stroke-width:0.5;" x1="1483" x2="1607" y1="841.532" y2="841.532"/></g><!--MD5=[315c3675337ceba6f8adb476cd7cc0bc]
class labels.Token--><g id="elem_labels.Token"><rect codeLine="116" fill="#F1F1F1" height="48" id="labels.Token" rx="2.5" ry="2.5" style="stroke:#181818;stroke-width:0.5;" width="73" x="1643.5" y="801.532"/><ellipse cx="1658.5" cy="817.532" fill="#FF7700" rx="11" ry="11" style="stroke:#181818;stroke-width:1.0;"/><path d="M1657.2344,824.532 L1659.7813,824.532 L1659.7813,814.0164 L1662.4063,814.0164 L1662.4063,811.907 L1654.5938,811.907 L1654.5938,814.0164 L1657.2344,814.0164 L1657.2344,824.532 Z " fill="#000000"/><text fill="#000000" font-family="sans-serif" font-size="14" lengthAdjust="spacing" textLength="41" x="1672.5" y="823.636">Token</text><line style="stroke:#181818;stroke-width:0.5;" x1="1644.5" x2="1715.5" y1="833.532" y2="833.532"/><line style="stroke:#181818;stroke-width:0.5;" x1="1644.5" x2="1715.5" y1="841.532" y2="841.532"/></g><!--MD5=[8cefb9cfab93e879f11186fe20bcd63b]
class labels.nothingSelector--><g id="elem_labels.nothingSelector"><rect codeLine="122" fill="#F1F1F1" height="189.9034" id="labels.nothingSelector" rx="2.5" ry="2.5" style="stroke:#181818;stroke-width:0.5;" width="331" x="746.5" y="490.532"/><ellipse cx="855.25" cy="506.532" fill="#7FFFD4" rx="11" ry="11" style="stroke:#181818;stroke-width:1.0;"/><path d="M855.4375,513.2351 C857.7344,513.2351 859.1875,511.6101 859.1875,509.6101 C859.1875,507.782 858.3594,506.9382 857.2188,506.1414 L856.2031,505.4226 C855.0781,504.6101 854.6563,504.3132 854.6563,503.4539 C854.6563,502.7664 855.1406,502.3601 855.7188,502.3601 C856.4531,502.3601 856.9375,502.7507 857.6406,503.3914 L858.9531,501.8132 C857.9844,500.7976 856.9688,500.2039 855.7031,500.2039 C853.5625,500.2039 852.1094,501.7195 852.1094,503.6414 C852.1094,505.4382 853.0313,506.3445 854.125,507.0945 L855.2188,507.8445 C856.1563,508.4539 856.6094,509.032 856.6094,509.9695 C856.6094,510.6414 856.1406,511.0632 855.4375,511.0632 C854.7344,511.0632 853.9844,510.5476 853.3281,509.7195 L851.7813,511.407 C852.8125,512.5945 854.1094,513.2351 855.4375,513.2351 Z " fill="#000000"/><text fill="#000000" font-family="sans-serif" font-size="14" lengthAdjust="spacing" textLength="105" x="875.75" y="512.636">nothingSelector</text><line style="stroke:#181818;stroke-width:0.5;" x1="747.5" x2="1076.5" y1="522.532" y2="522.532"/><line style="stroke:#181818;stroke-width:0.5;" x1="747.5" x2="1076.5" y1="530.532" y2="530.532"/><ellipse cx="757.5" cy="546.1679" fill="#84BE84" rx="3" ry="3" style="stroke:#038048;stroke-width:1.0;"/><text fill="#000000" font-family="sans-serif" font-size="14" lengthAdjust="spacing" textLength="152" x="766.5" y="550.7719">Matches(_ Labels) bool</text><ellipse cx="757.5" cy="566.4398" fill="#84BE84" rx="3" ry="3" style="stroke:#038048;stroke-width:1.0;"/><text fill="#000000" font-family="sans-serif" font-size="14" lengthAdjust="spacing" textLength="84" x="766.5" y="571.0438">Empty() bool</text><ellipse cx="757.5" cy="586.7118" fill="#84BE84" rx="3" ry="3" style="stroke:#038048;stroke-width:1.0;"/><text fill="#000000" font-family="sans-serif" font-size="14" lengthAdjust="spacing" textLength="90" x="766.5" y="591.3157">String() string</text><ellipse cx="757.5" cy="606.9837" fill="#84BE84" rx="3" ry="3" style="stroke:#038048;stroke-width:1.0;"/><text fill="#000000" font-family="sans-serif" font-size="14" lengthAdjust="spacing" textLength="203" x="766.5" y="611.5876">Add(_ ...Requirement) Selector</text><ellipse cx="757.5" cy="627.2556" fill="#84BE84" rx="3" ry="3" style="stroke:#038048;stroke-width:1.0;"/><text fill="#000000" font-family="sans-serif" font-size="14" lengthAdjust="spacing" textLength="247" x="766.5" y="631.8596">Requirements() (Requirements, bool)</text><ellipse cx="757.5" cy="647.5275" fill="#84BE84" rx="3" ry="3" style="stroke:#038048;stroke-width:1.0;"/><text fill="#000000" font-family="sans-serif" font-size="14" lengthAdjust="spacing" textLength="187" x="766.5" y="652.1315">DeepCopySelector() Selector</text><ellipse cx="757.5" cy="667.7994" fill="#84BE84" rx="3" ry="3" style="stroke:#038048;stroke-width:1.0;"/><text fill="#000000" font-family="sans-serif" font-size="14" lengthAdjust="spacing" textLength="305" x="766.5" y="672.4034">RequiresExactMatch(label string) (string, bool)</text></g><!--MD5=[ad2fb35eae63024630c8b0b8707b91aa]
reverse link labels.Labels to labels.Set--><g id="link_labels.Labels_labels.Set"><path codeLine="134" d="M979.6498,265.7615 C998.8698,297.7176 1023.7751,336.7246 1049,369.532 C1083.8895,414.909 1126.5319,461.9248 1163.4654,500.4601 " fill="none" id="labels.Labels-backto-labels.Set" style="stroke:#181818;stroke-width:1.0;"/><polygon fill="none" points="973.4988,269.1127,969.3117,248.3408,985.5384,261.9679,973.4988,269.1127" style="stroke:#181818;stroke-width:1.0;"/></g><!--MD5=[9032959e22fe2be999a2a869b0693c88]
reverse link labels.Selector to labels.ValidatedSetSelector--><g id="link_labels.Selector_labels.ValidatedSetSelector"><path codeLine="135" d="M440.5933,313.5466 C393.5402,362.6567 338.0878,420.5333 290.4578,470.2454 " fill="none" id="labels.Selector-backto-labels.ValidatedSetSelector" style="stroke:#181818;stroke-width:1.0;"/><polygon fill="none" points="435.6959,308.5399,454.5869,298.9413,445.8048,318.2255,435.6959,308.5399" style="stroke:#181818;stroke-width:1.0;"/></g><!--MD5=[12d43030cbe07d2c9a22df22de448fbd]
reverse link labels.Selector to labels.internalSelector--><g id="link_labels.Selector_labels.internalSelector"><path codeLine="136" d="M546,319.2123 C546,370.447 546,430.2916 546,480.2592 " fill="none" id="labels.Selector-backto-labels.internalSelector" style="stroke:#181818;stroke-width:1.0;"/><polygon fill="none" points="539.0001,318.9414,546,298.9413,553.0001,318.9413,539.0001,318.9414" style="stroke:#181818;stroke-width:1.0;"/></g><!--MD5=[bfba4c604a3ef0abc4667110b21847c7]
reverse link labels.Selector to labels.nothingSelector--><g id="link_labels.Selector_labels.nothingSelector"><path codeLine="137" d="M651.4893,313.6329 C705.0297,369.5139 769.4284,436.7278 820.8013,490.3465 " fill="none" id="labels.Selector-backto-labels.nothingSelector" style="stroke:#181818;stroke-width:1.0;"/><polygon fill="none" points="646.1952,318.2255,637.4131,298.9413,656.3041,308.5399,646.1952,318.2255" style="stroke:#181818;stroke-width:1.0;"/></g><!--MD5=[ec597d45806e0050a217017e39b2143c]
@startuml
namespace labels {
    class ByKey << (S,Aquamarine) >> {
        + Len() int
        + Swap(i int, j int) 
        + Less(i int, j int) bool

    }
    interface Labels  {
        + Has(label string) bool
        + Get(label string) string

    }
    class Lexer << (S,Aquamarine) >> {
        - s string
        - pos int

        - read() byte
        - unread() 
        - scanIDOrKeyword() (Token, string)
        - scanSpecialSymbol() (Token, string)
        - skipWhiteSpaces(ch byte) byte

        + Lex() (Token, string)

    }
    class Parser << (S,Aquamarine) >> {
        - l *Lexer
        - scannedItems []ScannedItem
        - position int
        - path *field.Path

        - lookahead(context ParserContext) (Token, string)
        - consume(context ParserContext) (Token, string)
        - scan() 
        - parse() (internalSelector, error)
        - parseRequirement() (*Requirement, error)
        - parseKeyAndInferOperator() (string, selection.Operator, error)
        - parseOperator() (selection.Operator, error)
        - parseValues() (sets.String, error)
        - parseIdentifiersList() (sets.String, error)
        - parseExactValue() (sets.String, error)

    }
    class Requirement << (S,Aquamarine) >> {
        - key string
        - operator selection.Operator
        - strValues []string

        - hasValue(value string) bool

        + Matches(ls Labels) bool
        + Key() string
        + Operator() selection.Operator
        + Values() sets.String
        + Equal(x Requirement) bool
        + String() string
        + DeepCopyInto(out *Requirement) 
        + DeepCopy() *Requirement

    }
    class ScannedItem << (S,Aquamarine) >> {
        - tok Token
        - literal string

    }
    interface Selector  {
        + Matches( Labels) bool
        + Empty() bool
        + String() string
        + Add(r ...Requirement) Selector
        + Requirements() (Requirements, bool)
        + DeepCopySelector() Selector
        + RequiresExactMatch(label string) (string, bool)

    }
    class Set << (S,Aquamarine) >> {
        + String() string
        + Has(label string) bool
        + Get(label string) string
        + AsSelector() Selector
        + AsValidatedSelector() (Selector, error)
        + AsSelectorPreValidated() Selector

    }
    class ValidatedSetSelector << (S,Aquamarine) >> {
        - toFullSelector() Selector

        + Matches(labels Labels) bool
        + Empty() bool
        + String() string
        + Add(r ...Requirement) Selector
        + Requirements() (Requirements, bool)
        + DeepCopySelector() Selector
        + RequiresExactMatch(label string) (string, bool)

    }
    class internalSelector << (S,Aquamarine) >> {
        + DeepCopy() internalSelector
        + DeepCopySelector() Selector
        + Empty() bool
        + Add(reqs ...Requirement) Selector
        + Matches(l Labels) bool
        + Requirements() (Requirements, bool)
        + String() string
        + RequiresExactMatch(label string) (string, bool)

    }
    class labels.ByKey << (T, #FF7700) >>  {
    }
    class labels.ParserContext << (T, #FF7700) >>  {
    }
    class labels.Requirements << (T, #FF7700) >>  {
    }
    class labels.Set << (T, #FF7700) >>  {
    }
    class labels.Token << (T, #FF7700) >>  {
    }
    class labels.ValidatedSetSelector << (T, #FF7700) >>  {
    }
    class labels.internalSelector << (T, #FF7700) >>  {
    }
    class nothingSelector << (S,Aquamarine) >> {
        + Matches(_ Labels) bool
        + Empty() bool
        + String() string
        + Add(_ ...Requirement) Selector
        + Requirements() (Requirements, bool)
        + DeepCopySelector() Selector
        + RequiresExactMatch(label string) (string, bool)

    }
}

"labels.Labels" <|- - "labels.Set"
"labels.Selector" <|- - "labels.ValidatedSetSelector"
"labels.Selector" <|- - "labels.internalSelector"
"labels.Selector" <|- - "labels.nothingSelector"

@enduml

PlantUML version 1.2022.7(Tue Aug 23 01:01:30 CST 2022)
(GPL source distribution)
Java Runtime: OpenJDK Runtime Environment
JVM: OpenJDK 64-Bit Server VM
Default Encoding: UTF-8
Language: zh
Country: CN
--></g></svg>